<svg xmlns="http://www.w3.org/2000/svg" width="180" height="27.63" viewBox="0 0 180 27.63"><g transform="translate(0)"><path d="M956.051,2997.089l-.049-.02-.6-.471-.057-.092-.032-.113,0-.088a43.325,43.325,0,0,0,.789-6.978,57.043,57.043,0,0,0-.208-6.992l-.013-.152v-.02l-.02,0-.127-.021-.851-.15a.169.169,0,0,1-.126-.18l.04-.95a.169.169,0,0,1,.108-.156l.819-.267a4.822,4.822,0,0,0,.536.019h.087a4.714,4.714,0,0,0,.634.021c.989-.063,1.968-.1,2.9-.109.533,0,1.064,0,1.6.015,1.595.042,3.158.181,4.476.309l.095.009.015,0,.008-.014.053-.088.3-.482.121-.071.081.025,1.65,1.243a.182.182,0,0,1,.047.229,3.773,3.773,0,0,0-.208.474,3.53,3.53,0,0,0-.189.669,51.358,51.358,0,0,0-.61,6.325,56.4,56.4,0,0,0,.131,6.292,2.477,2.477,0,0,1-.084.543.943.943,0,0,1-.269.369l-.289.255-.088.034-.034,0-.1-.089-.018-.039-.465-.313-.082-.038c-1.154-.081-2.378-.133-3.7-.148-1.1.01-2.293.061-3.747.167a3.836,3.836,0,0,0-1.265.237,4.028,4.028,0,0,0-1.156.755Zm4.265-2.547c.469-.006.937,0,1.41.014a35.872,35.872,0,0,1,4.187.339l.2.031.026,0,0-.03-.013-.239-.014-.218c-.044-.724-.1-1.62-.1-2.5-.034-1.039-.034-1.907,0-2.723l.009-.2v-.026H966l-.174-.006c-.535-.015-1.069-.018-1.6-.013-.847.007-1.686.039-2.525.078-1.625.114-2.935.238-4.119.391l-.146.02-.02,0v.023l0,.168-.05,2.385c-.014.812-.032,1.623-.071,2.407l-.009.223,0,.027h.024l.19-.018c.953-.082,1.9-.125,2.822-.133m.669-7.163c1.151-.011,2.361.036,3.33.077l.112.014a2.007,2.007,0,0,0,.231.038l.075.033.2.069.844.59.275.188.033.022,0-.045-.02-.37c-.063-1.12-.086-2.009-.071-2.882.013-.948.05-1.921.087-2.893l.008-.193,0-.025h-.022l-.167-.01c-1.441-.1-2.875-.138-4.263-.125s-2.848.081-4.309.2l-.169.016-.022,0,0,.024.014.2c.055.836.107,1.67.138,2.477.033.912.063,1.725.071,2.539l0,.209v.025l.023,0,.179-.012c1.254-.1,2.372-.158,3.413-.167" transform="translate(-924.483 -2969.985)" fill="#05487c"/><path d="M1004.255,2991.851h-.005l-.508-.062c-.087-.008-.174-.019-.257-.033a3.123,3.123,0,0,1-.7-.2,3.675,3.675,0,0,1-.905-.418,22.276,22.276,0,0,1-3.37-3.433,21.662,21.662,0,0,1-2.461-3.607h.019c.9.047,1.838.095,2.75.194,1.008.108,1.919.234,2.839.381l.05-.013.03.005.09-.018.093-.062,0,0,0-.006a2.5,2.5,0,0,0,.253-.566l.138-.695a.494.494,0,0,0-.051-.206.352.352,0,0,0-.121-.137.732.732,0,0,0-.154-.073l-.18-.067c-1.1-.075-2.206-.148-3.3-.2-1.077-.026-2.18-.026-3.257-.026h-.191v-2.687a.735.735,0,0,0-.051-.271l-.032-.073-.094-.2-.279-.294-.214-.142-.147-.091-.1-.025-.16,0a.351.351,0,0,0-.174.132.335.335,0,0,0-.114.18l-.016.063a.567.567,0,0,0-.075.2,1.236,1.236,0,0,0,.019.263l.075.542a1.591,1.591,0,0,0,.047.342,1.247,1.247,0,0,0,.013.167c0,.063.01.12.01.179l-.024,1.559,0,.169v.021h-.021l-.162,0c-1.035.024-2.067.075-3.069.123-.928.064-1.939.157-3,.268a.5.5,0,0,1-.167.064c-.027.014-.055.028-.139.067l-.123.115-.057.056-.044.112a2.918,2.918,0,0,0,.046.615,2.194,2.194,0,0,0,.165.658.148.148,0,0,0,.137.1l.034,0,.1-.023c.977-.2,1.8-.332,2.6-.418.919-.107,1.749-.2,2.593-.245h.027a21.8,21.8,0,0,1-2.159,3.518,20.592,20.592,0,0,1-3.214,3.379,3.272,3.272,0,0,1-.709.42,4.5,4.5,0,0,1-.755.243l-.3.065a.767.767,0,0,1-.276.022l-.06.007-.13.067a1.15,1.15,0,0,0-.083.128l-.02.154.077.122a7.739,7.739,0,0,0,1.532.51,5.472,5.472,0,0,0,1.684.245.735.735,0,0,0,.288,0,.649.649,0,0,0,.16-.061.878.878,0,0,0,.374-.263,34.359,34.359,0,0,0,2.643-3.9,28.508,28.508,0,0,0,2.007-4.3l.034-.09v.6l0,.608-.024,5.241v.186h-.023l-.157.009-2.5.147-.088.007-.106.021a.388.388,0,0,0-.178.171,3.1,3.1,0,0,0-.3.465,2.3,2.3,0,0,0-.156.59.153.153,0,0,0,.061.149l.241.176.09.046a.555.555,0,0,0,.225.073.986.986,0,0,0,.144-.019l2.536-.245.183-.017h.024v3.169a.988.988,0,0,0,.062.29l.029.091a.8.8,0,0,0,.06.195l.094.082.039.006.082-.026a2.336,2.336,0,0,0,.351-.287,2,2,0,0,0,.264-.254l.082-.086a2.559,2.559,0,0,0,.128-.245.6.6,0,0,0,.051-.257l.022-2.536,0-.182v-.024h.024l.174.009,2.347.108a.54.54,0,0,0,.181-.046l.118-.053.1-.067.452-.7a.184.184,0,0,0-.006-.185,1.064,1.064,0,0,0-.263-.267,1.049,1.049,0,0,0-.436-.108l-2.515-.2-.157-.012-.02,0v-.185l.026-4.878v-1.034l.043.072c.713,1.233,1.528,2.516,2.646,4.166.947,1.391,1.893,2.7,2.89,3.984a.814.814,0,0,0,.44.277.745.745,0,0,0,.178.052,1,1,0,0,0,.344,0,7.248,7.248,0,0,0,1.523-.559,8.824,8.824,0,0,0,1.251-.79.163.163,0,0,0-.077-.283" transform="translate(-938.011 -2969.437)" fill="#05487c"/><path d="M1079.554,2996.847l-.089-.023a1.963,1.963,0,0,1-.45-.384c-.158-.159-.294-.32-.429-.481a.9.9,0,0,1-.154-.415.883.883,0,0,1-.047-.419c.088-1.52.137-2.9.148-4.2.009-1.258-.012-2.613-.072-4.142l0-.018-.021,0a5.555,5.555,0,0,0-.57,0,4.686,4.686,0,0,0-.551.063,5.194,5.194,0,0,0-.965.262l-.043.009a.14.14,0,0,1-.126-.06l-.459-.626-.017-.024-.019.021-.321.319-.094.043h-.028a9.026,9.026,0,0,0-1.313-.067c-.5.027-.953.074-1.385.14l-.02,0v.019l.059,6.675a5.621,5.621,0,0,1-.172,1.348,4.817,4.817,0,0,1-.511,1.255l-.072.063-.088.033-.026.006a.263.263,0,0,1-.181-.086l-.5-.577a.594.594,0,0,1-.194-.335.937.937,0,0,1-.046-.42l.391-7.906,0-.021h-.021c-.217,0-.429.006-.637.017s-.417.03-.615.052a6.864,6.864,0,0,0-1.131.28l-.037.006a.152.152,0,0,1-.132-.062,1.523,1.523,0,0,1-.22-.48,1.63,1.63,0,0,1-.162-.573l.027-.1.227-.314.119-.075.1-.044a9.993,9.993,0,0,1,1.211-.163c.348-.02.681-.021,1.025-.022h.18v-.018l.064-2.065a2.16,2.16,0,0,0-.046-.406,1.39,1.39,0,0,0-.086-.187,1.5,1.5,0,0,1-.089-.187,1.136,1.136,0,0,1-.08-1.207l.071-.066.251-.11.051-.011.036,0a2.833,2.833,0,0,1,.534.18l.267.177.234.15a.934.934,0,0,1,.148.27.588.588,0,0,1,.019.281l-.032,3.056v.022h.021l.426-.023h.008l0-.006a9.589,9.589,0,0,0,.679-1.184c.179-.417.356-.851.511-1.286l-.247-.875.071-.185a.317.317,0,0,1,.119-.161l.7-.239.1-.016.073.005.093.045.058.056.279.483.016.1a10,10,0,0,1-.408,1.638,11.579,11.579,0,0,1-.789,1.521l-.02.034h.04l.849-.048.118.048.1.077a1.391,1.391,0,0,1,.172.333,1.406,1.406,0,0,1,.088.413l0,.046.036-.031.538-.49.078-.038c1.073-.158,2.186-.293,3.508-.414.58-.055,1.167-.1,1.756-.132s1.189-.054,1.795-.065a.434.434,0,0,1,.326.109.4.4,0,0,1,.123.292l-.391,1a.425.425,0,0,1-.16.178.478.478,0,0,1-.232.052c-.492-.014-1.008-.031-1.5-.028l-.306.017c-.405.022-.8.049-1.19.091l-.02,0v.016a29.066,29.066,0,0,0-.072,3.119,23.719,23.719,0,0,0,.261,3.079,13.69,13.69,0,0,1,.114,1.646c-.013.553-.051,1.087-.113,1.641a1.151,1.151,0,0,1-.172.448.923.923,0,0,1-.288.255Zm-16.247-1.013a.18.18,0,0,1-.148-.06,1.522,1.522,0,0,1-.119-.21,1.335,1.335,0,0,1-.128-.3.233.233,0,0,1-.015-.234.35.35,0,0,1,.117-.177l1.5-1.271a5.2,5.2,0,0,0,1.514-2.266,5.009,5.009,0,0,0,.122-2.708l-.008-.034-.026.023c-.271.228-.559.429-.836.622l-.219.153a9.2,9.2,0,0,1-1.15.622.533.533,0,0,1-.579.035,1.56,1.56,0,0,1-.668-.365,1.878,1.878,0,0,1-.524-.57.317.317,0,0,1-.04-.362.377.377,0,0,1,.221-.247,11.631,11.631,0,0,0,2.072-.986,11.978,11.978,0,0,0,1.856-1.385.864.864,0,0,1,.336-.284,1.244,1.244,0,0,1,.367-.085l.088.02a1.344,1.344,0,0,1,.164.125l.068.08.106.14a1.207,1.207,0,0,1,.154.37,1.308,1.308,0,0,1-.02.393l-.149.568a20.331,20.331,0,0,1-.177,2.924,21.578,21.578,0,0,1-.6,2.833,2.486,2.486,0,0,1-.361.66,4.861,4.861,0,0,1-.53.5l-1.679,1.191a1.617,1.617,0,0,1-.386.221,1.191,1.191,0,0,1-.323.069m5.062-.92h-.023l-.134-.074a.968.968,0,0,1-.17-.356.48.48,0,0,1-.017-.349,17.821,17.821,0,0,1,.32-1.877c.115-.545.274-1.14.481-1.818l0-.008-.007-.007a1.852,1.852,0,0,1-.318-.585,2.712,2.712,0,0,1-.162-.563l.01-.087a.8.8,0,0,1,.206-.27.823.823,0,0,1,.322-.187l.2-.015.095.007.263.1.116.072a.278.278,0,0,1,.121.192l.188.911a6.5,6.5,0,0,1-.242,2.557,6.626,6.626,0,0,1-1.141,2.313Zm6.919-.432-.007,0a.15.15,0,0,1-.14-.107,17.536,17.536,0,0,1-.568-2.538,17.251,17.251,0,0,1-.326-2.669,1.277,1.277,0,0,1-.2-.354.782.782,0,0,1-.129-.389.568.568,0,0,1,.011-.174l.041-.068.412-.391a.312.312,0,0,1,.148-.037h.042l.118.017.111.049.076-.026h.005a.15.15,0,0,1,.151.139.7.7,0,0,0,.056.181,14.85,14.85,0,0,1,.376,1.927c.1.627.182,1.28.241,1.935a5.819,5.819,0,0,1-.065,1.229,6.758,6.758,0,0,1-.217,1.167.147.147,0,0,1-.135.106m-11.781-9.116a2.169,2.169,0,0,1-.757-.143l-.675-.48a.251.251,0,0,1-.135-.155.286.286,0,0,1-.081-.234l.1-.226.128-.136.12-.04a7.5,7.5,0,0,0,1.784-.531,8.724,8.724,0,0,0,1.588-.92,2,2,0,0,0,.41-.36c.121-.163.218-.3.314-.448a1.25,1.25,0,0,1,.18-.343,3.123,3.123,0,0,1,.22-.233l.121-.037.018,0,.134.053.144.16a3.246,3.246,0,0,1,.346.668,3.151,3.151,0,0,1,.132.772.594.594,0,0,1-.063.242.568.568,0,0,1-.255.2,10.507,10.507,0,0,0-1.244.677,8.86,8.86,0,0,0-1.12.869,3.692,3.692,0,0,1-.535.364,4.1,4.1,0,0,1-.609.234,1.141,1.141,0,0,1-.262.048m13.359-2.163a.142.142,0,0,1-.132-.068,1.043,1.043,0,0,1-.155-.418,1.615,1.615,0,0,1-.079-.572.474.474,0,0,1,.07-.284.814.814,0,0,1,.164-.253,1.187,1.187,0,0,1,.36-.216,1.352,1.352,0,0,1,.413-.092c.467-.052.942-.1,1.415-.125.3-.015.591-.023.879-.024a13.238,13.238,0,0,1,2.272.188l.105.087-.007.14-.46,1.131a.335.335,0,0,1-.2.181.477.477,0,0,1-.173.054,9.717,9.717,0,0,0-1.686-.2l-.279.013a7.812,7.812,0,0,0-1.306.189l-1.174.269Z" transform="translate(-972.453 -2970.445)" fill="#05487c"/><path d="M1104.209,2996.969a.364.364,0,0,1-.233-.086.379.379,0,0,1-.172-.364l.023-.4a1.407,1.407,0,0,1,.107-.252.9.9,0,0,1,.178-.248,8.734,8.734,0,0,0,1.993-2.376,9.3,9.3,0,0,0,1.033-2.937l.005-.032-.031.01-1.791.513a2.438,2.438,0,0,0-.34.181,1.783,1.783,0,0,0-.358.179.878.878,0,0,1-.256.05.419.419,0,0,1-.365-.2l-.267-.6a.526.526,0,0,1-.021-.323.328.328,0,0,1,.107-.257l.271-.429.058-.054a1.805,1.805,0,0,1,.157-.1.451.451,0,0,1,.236-.085l2.709-.269.016,0,0-.016a14.138,14.138,0,0,0,.248-1.658c.021-.561.021-1.121,0-1.7l0-.022h-.02l-2.261.068h-.029a.455.455,0,0,1-.228-.042.3.3,0,0,1-.171-.189l-.132-.36a.243.243,0,0,1-.021-.211.512.512,0,0,1,.065-.242l.222-.379a.525.525,0,0,1,.26-.261.845.845,0,0,1,.348-.086l2.055.068.024,0v-.027l-.065-.94a1.437,1.437,0,0,0-.069-.429,1.41,1.41,0,0,0-.251-.344l-.224-.243a.317.317,0,0,1-.129-.255.512.512,0,0,1,.02-.306l.228-.672a.339.339,0,0,1,.15-.213,1.6,1.6,0,0,1,.241-.134l.33-.044a1.047,1.047,0,0,1,.257.024.74.74,0,0,1,.213.152l.425.579a.622.622,0,0,1,.085.254.655.655,0,0,1-.045.3,1.484,1.484,0,0,0-.136.387,1.188,1.188,0,0,0,0,.389l.09,1.336,0,.021h.02a5.939,5.939,0,0,1,1.07.11,6.927,6.927,0,0,1,1,.337l.094.094.049.121a.257.257,0,0,1-.042.156l-.424.671a.631.631,0,0,1-.24.236.735.735,0,0,1-.369.087l-1.1.023h-.023v.023c0,.512,0,1.028-.021,1.54s-.067,1.031-.113,1.524v.023h.026l1.9-.157h.131l.106.043.041.109,0,.13-.117.359a.551.551,0,0,1-.257.233.5.5,0,0,1-.351.177l-1.572.382-.014,0v.016a17.607,17.607,0,0,1-.444,2.456,16.88,16.88,0,0,1-.829,2.366,3.527,3.527,0,0,1-.642.979,4.014,4.014,0,0,1-.936.712,2.636,2.636,0,0,1-.644.31,3.443,3.443,0,0,1-.7.179Zm9.9-.185a.482.482,0,0,1-.4-.19,1.076,1.076,0,0,1-.242-.436,1.363,1.363,0,0,1-.089-.466.461.461,0,0,1,.042-.236.537.537,0,0,1,.173-.215,2.471,2.471,0,0,1,.319-.175l.148-.069a2.939,2.939,0,0,1,.508-.157l.012,0,0-.01a18.45,18.45,0,0,0,.427-2.174,12.809,12.809,0,0,0,.067-2.241,1.465,1.465,0,0,0-.089-.43,4.185,4.185,0,0,0-.224-.387,2.926,2.926,0,0,1-.471-.6c-.12-.168-.225-.346-.327-.521l-.1-.17-.042-.071,0,.042a10.315,10.315,0,0,1-.582,3.095,11.2,11.2,0,0,1-1.518,2.724,1.109,1.109,0,0,1-.657.372,1.082,1.082,0,0,1-.278.035.841.841,0,0,1-.443-.12l-1.549-.851a.291.291,0,0,1-.211-.255.308.308,0,0,1,.105-.269.74.74,0,0,1,.305-.219.539.539,0,0,1,.214-.036,1.05,1.05,0,0,1,.178.014,1.32,1.32,0,0,0,.2.018,1.392,1.392,0,0,0,.615-.153,1.659,1.659,0,0,0,.612-.568,12.219,12.219,0,0,0,1.725-3.808,11.942,11.942,0,0,0,.334-4.191,5.026,5.026,0,0,0-.156-.543,1.67,1.67,0,0,0-.294-.5.561.561,0,0,1-.2-.391.813.813,0,0,1-.024-.46,2.07,2.07,0,0,1,.209-.446l.087-.135c.073-.112.139-.215.215-.31a1.563,1.563,0,0,1,.416-.239,1.466,1.466,0,0,1,.463-.088c1.792-.089,3.594-.134,5.345-.134s3.512.042,5.347.134l.147.045.122.136a.29.29,0,0,1-.023.24l-.622.888a.522.522,0,0,1-.3.24.376.376,0,0,1-.146.02.757.757,0,0,1-.241-.044,22.356,22.356,0,0,0-4.419-.45l-.311,0a20.62,20.62,0,0,0-4.655.647l-.014.006,0,.015a26.211,26.211,0,0,0-.112,2.64c0,1.023.03,1.886.091,2.642l0,.06.033-.05a3.072,3.072,0,0,1,.621-.531,2.21,2.21,0,0,1,.754-.287c.58-.046,1.184-.091,1.763-.112.6,0,1.21,0,1.813.044.99.045,1.966.068,2.977.068,1.115,0,2.1-.031,3-.091h.006l.092.031.087.041.1.039a1.037,1.037,0,0,1,.262.2.21.21,0,0,1,.018.216l-.491.853a.266.266,0,0,1-.194.149.478.478,0,0,1-.237.066l-2.952-.09-.028,0,.008.032.132.535-.028.153-.062.1-1.693,1.833-.013.013.013.012,3.176,3.135a1.818,1.818,0,0,0,.611.428,1.523,1.523,0,0,0,.725.16h.715c.056.012.243.106.252.165l.034.182-.014.092-.29.581a.8.8,0,0,1-.22.261.707.707,0,0,1-.324.153l-.963.156a1.207,1.207,0,0,1-.252.029.688.688,0,0,1-.314-.07.806.806,0,0,1-.483-.329l-3.58-4.208-.013-.014-.015.01-.828.493a.5.5,0,0,1-.237.064.678.678,0,0,1-.279-.065l-.312-.135a.329.329,0,0,1-.168-.293.351.351,0,0,1,.168-.317,6.585,6.585,0,0,0,1.412-.852,8.075,8.075,0,0,0,1.143-1.165,1.119,1.119,0,0,0,.183-.5,1.077,1.077,0,0,0-.112-.528l-.006-.011h-.012l-3.6-.178-.026,0,0,.026a18.747,18.747,0,0,1,.091,3.013,22.778,22.778,0,0,1-.311,3.017l-.005.03.026,0a6.765,6.765,0,0,0,1.438-.313,7.868,7.868,0,0,0,1.334-.522l.158-.013.1.074.032.139-.045.116a12.351,12.351,0,0,1-4.7,2.713.738.738,0,0,1-.159.017m8.288-11.008-.13-.011-4.479-.582a3.912,3.912,0,0,0-.552-.037,3.813,3.813,0,0,0-.547.037,3.583,3.583,0,0,0-1.061.313l-.019,0-.057,0-.111,0a.232.232,0,0,1-.207-.168l-.336-.762-.019-.147a.293.293,0,0,1,.088-.192l.195-.219.1-.048c.019,0,.058-.011.109-.022l.112-.017h0a.71.71,0,0,1,.206.045l6.943-.042a1.362,1.362,0,0,1,.418.132,1.1,1.1,0,0,1,.293.338.391.391,0,0,1,.094.224.455.455,0,0,1-.037.23l-.539.7a.47.47,0,0,1-.279.2.532.532,0,0,1-.193.034" transform="translate(-991.197 -2970.078)" fill="#05487c"/><path d="M1166.466,2991.013l-2.931.022h-.061l.05-.04a2.342,2.342,0,0,0,.463-.484,1.617,1.617,0,0,0,.265-.641l1.1-7.763.393-.623a.364.364,0,0,0-.119-.3l-.648-.442a2.281,2.281,0,0,0-.594-.253,2.188,2.188,0,0,0-.472-.055c-.054,0-.111,0-.173.006-.312.026-.65.026-.967.026a6.925,6.925,0,0,1-.96-.092,2.354,2.354,0,0,0-.8.163,1.9,1.9,0,0,0-.729.414l-.043.058.007-.117-.054-.638a.158.158,0,0,0-.1-.13l-.589-.223c-.3-.071-.476.356-.638.5h-.01a16.634,16.634,0,0,0-2.613-.349,5.068,5.068,0,0,0-.819-.007c-.244.022-.476.143-.843.191a1.654,1.654,0,0,1-.781-.057c-.369-.2-.691-.351-.691-.351l-.1-.006-.049.007-.316.24-.289.192a2.367,2.367,0,0,1-1.27.343,8.115,8.115,0,0,1-1.107-.075,4.03,4.03,0,0,0-2.1.176.163.163,0,0,0-.12.12l-.288.561a.7.7,0,0,0-.021.364.681.681,0,0,0,.087.32c.175.562.333,1.171.472,1.794a12.793,12.793,0,0,1,.157,1.82l-.069,5.282v.024h-.019a7.107,7.107,0,0,0-1.026.071,6.088,6.088,0,0,0-1,.233.994.994,0,0,0-.53.3,1.038,1.038,0,0,0-.353.526.829.829,0,0,0-.088.547.888.888,0,0,0,.224.53c.064.083.15.1.321.112a.539.539,0,0,0,.209-.055,6.835,6.835,0,0,1,1.594-.512,9.417,9.417,0,0,1,1.637-.163l2.356-.025a1.167,1.167,0,0,0-.128.219.9.9,0,0,0-.071.685l.126.52c0,.051,0,.1,0,.231l0,.109a1.8,1.8,0,0,1-.111.313,6.1,6.1,0,0,1-.708.928,7.28,7.28,0,0,1-.907.754.845.845,0,0,0-.1.2.174.174,0,0,0,.028.178l.051.034.11,0a9.892,9.892,0,0,0,1.621-.9,10.6,10.6,0,0,0,1.571-1.36,3.7,3.7,0,0,0,.416-.64,4.668,4.668,0,0,0,.2-.672l.024-.257a.85.85,0,0,0-.091-.342h6.738a1.232,1.232,0,0,0-.237.582,1.208,1.208,0,0,0,.073.758,1.383,1.383,0,0,0,.638.732,4.492,4.492,0,0,1,.771.377c.287.176.593.91,1,1.229a4.428,4.428,0,0,0,.732.493l.123,0,.013-.006a.154.154,0,0,0,.077-.115,1.062,1.062,0,0,0,.005-.229,2.086,2.086,0,0,0-.119-.524,13.392,13.392,0,0,0-1.072-2.105,8.926,8.926,0,0,0-.889-1.195h1.6a5.575,5.575,0,0,1,.566.039l.086.01c.217.023.433.067.673.116s.536.108.894.162a6.8,6.8,0,0,0,.917.1l.068.011.114-.038a.608.608,0,0,0,.133-.179,3.164,3.164,0,0,0,.275-.786,4.523,4.523,0,0,0,.078-.717c0-.147-.125-.211-.245-.257m-13.312-.041,0,.017h-.018l-3.958.047h-.022v-3.257h.022a11.354,11.354,0,0,0,2.907-.453.157.157,0,0,0,.1-.114c.008-.039.019-.075.034-.155l.011-.113a.156.156,0,0,0-.09-.17,3.115,3.115,0,0,0-.552-.182,3.566,3.566,0,0,0-.71-.048l-1.652.117h-.024v-.023l-.046-2.024v-.024l.024,0c.139.011.274.016.411.016a6.266,6.266,0,0,0,1.128-.112,5.909,5.909,0,0,0,1.374-.373.162.162,0,0,0,.093-.132l.012-.131-.036-.185-.077-.069-.1-.065a5.644,5.644,0,0,0-1.4-.257c-.089,0-.173-.007-.258-.007a5.456,5.456,0,0,0-1.147.125l-.027,0v-.027l-.022-1.862v-.025h.021c.236.018.476.024.715.024a12.561,12.561,0,0,0,1.318-.071,10.254,10.254,0,0,0,2.01-.347l.024-.007,0,.023a33.016,33.016,0,0,1-.068,9.855m5.907.063h-.021l-5.5-.022h-.032l.01-.028c.086-.237.178-.479.276-.733l.172-.454c.092-.271.23-.6.335-.877l.128-.4.154-.731.165-.76c.039-.225.082-.446.138-.735a3.913,3.913,0,0,1,.265,1.142c.024.442.109.988.1,1.421l.068.119.131.057.11.029.025-.009.14-.137,1.344-.023a.622.622,0,0,0,.17-.021.569.569,0,0,0,.128-.109c.3-.439.558-.86.8-1.276a11.209,11.209,0,0,0,.517-1.274.152.152,0,0,0-.05-.174l-.526-.418-.09-.034h-3.072v-.022l.021-1.172,0-.375a17.775,17.775,0,0,1,1.929-.088c.663,0,1.675.037,2.125.057l.02,0v.019l.021,7.006Zm-3.31-2.753v-.023l.069-2v-.023h1.544l-.007.028-.378,1.885,0,.014-.015,0-1.188.115Zm3.31-7.043v2.048h-.071c-1.229-.063-1.951-.05-1.951-.05-.5,0-.86-.007-1.261-.007-.288,0-.573,0-.854.016h-.017l0-.018-.222-2.128,0-.024h.022c.42-.028.846-.04,1.274-.04.3,0,.6.008.9.015.825.028,1.516.078,2.176.165h.016Zm1.143,2.443.025-2.443,0-.066.033.049.957.719a.659.659,0,0,0,.3.09.814.814,0,0,0,.307-.071,9.981,9.981,0,0,1,1.12-.279,9.861,9.861,0,0,1,1.193-.048h.022l-.007.028-.312,2.12,0,.015h-.019l-.119-.009c-.563-.043-1.124-.085-1.673-.105-.6,0-1.2,0-1.8.022h-.025Zm3.2,3.774-.268,2.026a3.964,3.964,0,0,0-.069.762,2.838,2.838,0,0,0,.112.762l.012.029h-2.959v-3.846l.024.005a10.228,10.228,0,0,0,1.542.189c.405.038.8.056,1.16.056.138,0,.283,0,.424-.01l.024,0Zm-2.188-1.238a1.9,1.9,0,0,0-.508.137,1.583,1.583,0,0,0-.439.344l-.038.04v-2.214l.022,0c.49-.04.989-.045,1.476-.045h.268l.111.007c.543.043,1.089.089,1.637.153l.018,0,0,.023-.174,1.583,0,.021h-.019Z" transform="translate(-1009.723 -2969.883)" fill="#05487c"/><path d="M1203.95,2997.073a.253.253,0,0,1-.185-.089c-.185-.3-.365-.6-.57-.886-.112-.157-.226-.319-.335-.482l-.073-.106-.26-.37-.017-.024-.018.019a2.086,2.086,0,0,1-.731.531,1.963,1.963,0,0,1-.782.162l-.146-.005c-.866-.028-1.729-.046-2.59-.046-.526,0-1.051.006-1.577.024-1.592.049-3.085.18-4.207.29a1.1,1.1,0,0,0-.477.113,1.573,1.573,0,0,0-.365.221l-.088.03-.026,0-.1-.062a2.552,2.552,0,0,1-.33-.6,4.85,4.85,0,0,1-.267-.736.265.265,0,0,1,.041-.273.364.364,0,0,1,.214-.172l1.05-.423a16.138,16.138,0,0,0,1.642-1.618,19.948,19.948,0,0,0,1.411-1.857l.024-.039-.044,0c-.71.046-1.375.091-2.035.156s-1.34.157-2.012.251a2.679,2.679,0,0,0-.768.244,3.2,3.2,0,0,0-.593.38l-.093.034-.113-.052a1.826,1.826,0,0,1-.29-.483,3.259,3.259,0,0,1-.2-.6.372.372,0,0,1,0-.208.469.469,0,0,1,.108-.2l.47-.514a.736.736,0,0,1,.139-.091l.119-.009a.474.474,0,0,1,.125.017c.962.108,1.972.178,2.978.2.263.012.531.018.8.018.671,0,1.392-.032,2.205-.106,1.339-.082,3-.179,4.6-.225,1.73,0,3.224.028,4.564.084l.1.045.2.2a.3.3,0,0,1,.031.21,4.143,4.143,0,0,1-.214.657,4.09,4.09,0,0,1-.312.67l-.1.075-.1.017c-.745-.122-1.4-.252-2.052-.382-.695-.113-1.388-.206-2.113-.28l-.051,0,.035.039c.7.832,1.326,1.655,1.788,2.281.558.75,1.093,1.526,1.634,2.368a1.494,1.494,0,0,1,.157.37,1.121,1.121,0,0,1,.04.508l-.046.523v.078c0,.064-.1.1-.161.12Zm-5.945-2.823h.005l.124.005c1.234.042,2.512.088,3.767.176l.049,0-.029-.037-1.479-1.882c-.482-.592-.983-1.2-1.523-1.812l-.665-.041-.623-.03h-1.269l-.008.014c-.132.31-.266.6-.4.891a7.793,7.793,0,0,1-.534.778c-.277.324-.51.651-.716.942a7.042,7.042,0,0,0-.629,1.031l-.016.03h.035c1.3-.042,2.615-.066,3.909-.066m-9.768-5.3a2.024,2.024,0,0,1-.352-.022,2.63,2.63,0,0,1-.933-.488,3.428,3.428,0,0,1-.742-.71.236.236,0,0,1,0-.246l.063-.069.114-.031.112.015a.976.976,0,0,0,.306.056l.112-.007a1.08,1.08,0,0,0,.411-.161,52.755,52.755,0,0,0,4.385-3.38c1.416-1.21,2.773-2.482,4.027-3.782a1.882,1.882,0,0,0,.3-.408,2,2,0,0,0,.157-.449l.083-.244a.146.146,0,0,1,.11-.1l.44-.094a1.178,1.178,0,0,1,.548.158,1.21,1.21,0,0,1,.368.435l.066.825v.005l.013.007.07.039c1.229.705,2.455,1.407,3.663,2.133,1.29.791,2.521,1.582,3.666,2.348a3.968,3.968,0,0,0,1.26.628,4.1,4.1,0,0,0,1.133.171c.07,0,.139,0,.209-.005h.007a.206.206,0,0,1,.149.1.2.2,0,0,1,.01.184,6.3,6.3,0,0,1-2.048,1.858.5.5,0,0,1-.205.052l-.078-.01a.292.292,0,0,1-.249-.122c-1.307-1.138-2.707-2.26-4.256-3.406a46.993,46.993,0,0,0-4.609-2.956l-.015-.01-.014.015c-.563.623-1.237,1.357-1.966,2.057-.833.835-1.474,1.443-2.079,1.968l-.042.037h.055c.349,0,.7-.007,1.047-.007,1.047,0,2.119.025,3.182.075,1.479.073,2.83.191,4.135.36l.152.041.13.139.078.159a.144.144,0,0,1-.031.162l-.481.493-.09.043c-1.151.124-2.323.2-3.583.217-.6.025-1.212.033-1.821.033s-1.218-.009-1.823-.033l-.62.36-.075.02-.04-.007-.089-.068a3.938,3.938,0,0,1-.3-.7,2.691,2.691,0,0,1-.156-.818v-.047l-.034.032q-.874.806-1.743,1.544l-.233.194c-.509.434-1.034.878-1.557,1.3a.524.524,0,0,1-.3.106" transform="translate(-1028.138 -2969.442)" fill="#05487c"/><path d="M1034.058,2996.185a12.348,12.348,0,0,1-2.982-1.56c-.754-.545-1.143-.928-1.632-1.34l-.084-.135a.148.148,0,0,1,.022-.171l.323-.351a.157.157,0,0,1,.167-.038h.01l.1.045a13.348,13.348,0,0,0,1.9,1.1c.328.154,2.183.909,3.043-.6a5.1,5.1,0,0,0,.133-3.251h-.032c-.306.023-1.02.04-1.322.055l-.158.01c-.268.014-.8.029-1.062.048-.606.044-1.2.125-1.861.224a9.619,9.619,0,0,0-1.772.314,10.159,10.159,0,0,0-1.7.605.358.358,0,0,1-.148.043l-.1-.024a.234.234,0,0,1-.215-.125,1.644,1.644,0,0,1-.158-.551,1.453,1.453,0,0,1,0-.641.429.429,0,0,1,.155-.28.773.773,0,0,1,.3-.175c1.432-.234,2.652-.4,3.762-.514,1.428-.125,2.668-.2,3.789-.244l.054,0-.038-.033-.647-.582a.146.146,0,0,1-.019-.194l.084-.091a.463.463,0,0,1,.2-.107l.116-.024.035,0,.033,0,.029-.021.028-.062.065-.081c.3-.387.6-.772.913-1.159.333-.386.712-.75,1.11-1.136l.088-.081-.063,0c-.678,0-1.411.024-2.108.068a15.483,15.483,0,0,0-2.048.381l-.038.011.025.024c.134.123.272.246.405.373l.1.091c.18.17.363.338.541.5.208.214.408.438.608.666a.147.147,0,0,1,.007.194l-.12.057-.069-.017c-.522-.279-1.018-.568-1.447-.822-.7-.418-1.255-.765-1.743-1.1a.455.455,0,0,1-.226-.17.807.807,0,0,1-.138-.263.511.511,0,0,1-.043-.242,1.026,1.026,0,0,1-.025-.271.32.32,0,0,1,.088-.167.279.279,0,0,1,.191-.058c1.227-.1,2.3-.156,3.26-.177.962,0,1.993.036,3.257.111h.013l.008-.011.151-.235a.264.264,0,0,1,.2-.084l.064.014.113.061a1.155,1.155,0,0,0,.192.1,1.994,1.994,0,0,1,.3.175l.062.12v.1l-.029.081a16.8,16.8,0,0,1-3.061,3.264l-.015.012.009.015.649.763.005.01h.014a6.683,6.683,0,0,1,.969-.024c.754,0,1.489.018,2.239.038l.249.007a4.815,4.815,0,0,0,.575.035,5.246,5.246,0,0,0,.591-.035,9.588,9.588,0,0,0,1.166-.068,4.486,4.486,0,0,1,.785-.088,4.1,4.1,0,0,1,.79.068l.085.039a.313.313,0,0,1,.129.127.236.236,0,0,1,0,.251,2.509,2.509,0,0,1-.689.773,4.406,4.406,0,0,1-.925.488,2.3,2.3,0,0,1-.666.111,1.762,1.762,0,0,1-.308.03,1.1,1.1,0,0,1-.4-.073,24.492,24.492,0,0,0-3.1-.36c-.411-.026-.82-.038-1.227-.038-.614,0,.266-.02.266-.02a5.422,5.422,0,0,1,.523,3.24,3.034,3.034,0,0,1-.851,2.07,2.945,2.945,0,0,1-1.806.985m-7.863-8.732-.058-.011a.141.141,0,0,1-.093-.167l.155-.723c.095-.539.164-1.074.234-1.612a2.41,2.41,0,0,0-.07-.813,3.142,3.142,0,0,0-.4-.724,1.31,1.31,0,0,1-.349-.358,1.324,1.324,0,0,1-.2-.439l-.008-.133.043-.109a1.517,1.517,0,0,1,.326-.251,1.284,1.284,0,0,1,.344-.086l3.928-.224h.031l-.012-.027a7.714,7.714,0,0,0-.42-.875,4.667,4.667,0,0,0-.645-.708l-.1-.162v-.141l.09-.149.084-.07,1-.325a.514.514,0,0,1,.162-.026.979.979,0,0,1,.269.045.564.564,0,0,1,.289.26,3.014,3.014,0,0,1,.276,1.066,2.646,2.646,0,0,1-.185,1.063l-.015.03h2.292v-.021a10.062,10.062,0,0,0-.047-1.186c-.061-.351-.148-.7-.233-1.052l-.018-.076a.55.55,0,0,1,.085-.559.634.634,0,0,1,.453-.327h.555l.089.02a2.132,2.132,0,0,1,.432.155,1.574,1.574,0,0,1,.318.33l.04.125a1.4,1.4,0,0,1,.05.313,6.26,6.26,0,0,1-.255,1.157,4.729,4.729,0,0,1-.507,1.065l-.024.033h.041l2.42.07h.02l0-.018c.047-.271.093-.514.164-.785l.018-.106c.037-.233.077-.449.1-.681v-.246a.384.384,0,0,0-.062-.193l-.007-.115.2-.554.088-.087a2.261,2.261,0,0,1,.548-.125,2.4,2.4,0,0,1,.265-.014,1.947,1.947,0,0,1,.382.037c.064.022.139.057.289.237a.6.6,0,0,1,.066.389c-.093.4-.209.8-.324,1.158a11.826,11.826,0,0,1-.466,1.115l-.012.03h.031l4.188.269a1.052,1.052,0,0,1,.616.22,1.031,1.031,0,0,1,.318.546,4.157,4.157,0,0,1-.116,1.846,5.075,5.075,0,0,1-.616,1.358.154.154,0,0,1-.129.07l-.029,0a.152.152,0,0,1-.121-.122,5.639,5.639,0,0,1-.084-.937,5.061,5.061,0,0,1,.162-1.315.9.9,0,0,0-.167-.554.947.947,0,0,0-.527-.257,36.73,36.73,0,0,0-4.915-.346c-.654,0-1.3.021-1.91.057a34.2,34.2,0,0,0-6.75,1.075l-.014,0v.018a8.47,8.47,0,0,1-.3,1.314,7.922,7.922,0,0,1-.51,1.271l-.042.075-.043.072c-.161.259-.316.518-.472.743l-.069.111a.149.149,0,0,1-.13.071" transform="translate(-956.13 -2969.318)" fill="#05487c"/><path d="M956.455,2968.083a2.942,2.942,0,0,1-1.593.893c-.1.015-.109-.014-.109-.068,0-.037.01-.053.09-.073a2.024,2.024,0,0,0,.76-.4,2.34,2.34,0,0,0,.676-1.22,6.68,6.68,0,0,0,.12-1.8c0-.592-.03-2.594-.042-2.831s-.063-.37-.271-.423a1.146,1.146,0,0,0-.245-.023c-.069,0-.107-.015-.107-.066s.044-.067.139-.067c.333,0,.73.024.894.024s.548-.024.793-.024c.089,0,.133.016.133.067s-.038.066-.114.066a.874.874,0,0,0-.182.023c-.171.037-.221.162-.233.423-.013.238-.013.445-.013,1.57v.687c0,.2,0,.62,0,.9a3.171,3.171,0,0,1-.7,2.332" transform="translate(-924.483 -2961.906)" fill="#05487c"/><path d="M961.349,2967.18l-.046.04-.27.776a1.2,1.2,0,0,0-.074.351c0,.1.045.161.2.161h.076c.061,0,.073.028.073.062s-.028.061-.081.061c-.166,0-.4-.021-.562-.021-.051,0-.321.021-.586.021-.062,0-.092-.013-.092-.061l.058-.062.149-.005c.23-.041.316-.216.42-.507l1.321-3.584c.057-.162.1-.228.15-.228.074,0,.1.053.147.18.122.318.966,2.639,1.287,3.511.2.519.338.593.431.614a1.043,1.043,0,0,0,.189.019l.069.062c0,.047-.029.061-.219.061s-.546,0-.972-.013c-.091-.007-.147-.007-.147-.047s.01-.054.062-.062c.034-.005.069-.058.046-.127l-.39-1.16-.052-.04Zm1.079-.317.023-.034-.477-1.437-.024-.055-.027.055-.488,1.43.017.041Z" transform="translate(-926.828 -2962.879)" fill="#05487c"/><path d="M974.115,2967.18l-.045.04-.27.776a1.194,1.194,0,0,0-.075.351c0,.1.045.161.2.161H974c.063,0,.075.028.075.062s-.029.061-.08.061c-.166,0-.4-.021-.564-.021-.051,0-.322.021-.585.021-.063,0-.093-.013-.093-.061l.057-.062.151-.005c.229-.041.315-.216.419-.507l1.321-3.584c.059-.162.1-.228.148-.228.075,0,.1.053.15.18.122.318.966,2.639,1.288,3.511.194.519.337.593.43.614a1.061,1.061,0,0,0,.19.019l.068.062c0,.047-.027.061-.218.061s-.546,0-.969-.013c-.092-.007-.15-.007-.15-.047s.012-.054.063-.062c.034-.005.068-.058.045-.127l-.389-1.16-.052-.04Zm1.081-.317.022-.034-.476-1.437-.023-.055-.029.055-.489,1.43.018.041Z" transform="translate(-932.546 -2962.879)" fill="#05487c"/><path d="M981.232,2967.852c.011.445.073.582.173.62a.725.725,0,0,0,.263.041c.057,0,.087.028.087.062s-.046.061-.115.061c-.327,0-.562-.021-.655-.021-.046,0-.286.021-.544.021-.069,0-.116-.006-.116-.061l.082-.062a.889.889,0,0,0,.228-.026c.133-.041.15-.2.156-.7l.046-3.4c0-.115.032-.2.086-.2s.132.089.219.19c.063.074.82.985,1.555,1.829.346.4,1.016,1.209,1.091,1.288h.023l-.051-2.551c-.005-.35-.051-.453-.171-.5a.729.729,0,0,0-.266-.034c-.062,0-.08-.027-.08-.061s.052-.055.127-.055c.263,0,.534.015.641.015.059,0,.248-.015.5-.015.069,0,.115.007.115.055s-.029.061-.086.061a.449.449,0,0,0-.157.021c-.137.048-.178.148-.182.474l-.058,3.615c0,.129-.04.183-.08.183a.291.291,0,0,1-.207-.121c-.315-.346-.946-1.054-1.477-1.655-.55-.62-1.085-1.315-1.181-1.417h-.018Z" transform="translate(-935.936 -2962.883)" fill="#05487c"/><path d="M992.918,2967.485c-.1-.052-.121-.089-.121-.254,0-.411.024-.859.031-.979s.025-.194.076-.194.063.066.063.128a1.731,1.731,0,0,0,.056.379.9.9,0,0,0,.908.754.83.83,0,0,0,.849-.851,1.494,1.494,0,0,0-.621-1.195l-.291-.27a2.312,2.312,0,0,1-.939-1.771,1.371,1.371,0,0,1,1.465-1.411,2.707,2.707,0,0,1,.844.125c.058.017.089.039.089.092,0,.1-.025.314-.025.9,0,.163-.018.225-.07.225s-.063-.045-.063-.136a.987.987,0,0,0-.165-.492.765.765,0,0,0-.691-.367.718.718,0,0,0-.755.77c0,.343.144.6.673,1.077l.177.156a2.379,2.379,0,0,1,1.041,1.9,1.594,1.594,0,0,1-.6,1.3,1.617,1.617,0,0,1-1.01.307,1.9,1.9,0,0,1-.926-.194" transform="translate(-941.523 -2961.822)" fill="#05487c"/><path d="M998.954,2966.478a2.106,2.106,0,0,1,2.118-2.247,1.959,1.959,0,0,1,2.067,2.147,2.149,2.149,0,0,1-2.118,2.348,2.082,2.082,0,0,1-2.067-2.248m3.433.109c0-1.269-.649-2.052-1.464-2.052-.563,0-1.224.35-1.224,1.767,0,1.182.576,2.114,1.528,2.114.357,0,1.16-.2,1.16-1.829" transform="translate(-944.281 -2962.9)" fill="#05487c"/><path d="M1008.183,2968.105a2.489,2.489,0,0,1-.04-3.267,2.076,2.076,0,0,1,1.6-.608,4.408,4.408,0,0,1,.735.061c.19.033.355.074.5.093.058.009.075.034.075.069s-.012.114-.022.317-.013.507-.018.62c-.006.083-.023.142-.07.142s-.05-.047-.05-.121a.89.89,0,0,0-.2-.534,1.3,1.3,0,0,0-.977-.337,1.233,1.233,0,0,0-.953.323,2.064,2.064,0,0,0-.465,1.493,1.8,1.8,0,0,0,1.573,2.011c.449,0,.7-.041.9-.3a.989.989,0,0,0,.171-.385c.012-.087.023-.114.064-.114l.058.1a5.863,5.863,0,0,1-.11.762.193.193,0,0,1-.132.17,2.567,2.567,0,0,1-.913.127,2.343,2.343,0,0,1-1.734-.621" transform="translate(-948.132 -2962.9)" fill="#05487c"/><path d="M1015.519,2966.038c0-.871,0-1.032,0-1.215s-.064-.263-.174-.3a.505.505,0,0,0-.183-.028c-.051,0-.081-.013-.081-.068,0-.033.042-.048.121-.048.19,0,.534.014.678.014.126,0,.454-.014.648-.014.064,0,.1.014.1.048,0,.055-.029.068-.081.068a.577.577,0,0,0-.15.021c-.138.027-.178.109-.19.311-.011.183-.011.344-.011,1.215v1.013c0,.552,0,1.012.024,1.255.017.154.053.243.2.271a1.782,1.782,0,0,0,.26.019c.057,0,.079.035.079.062s-.04.061-.1.061c-.333,0-.678-.021-.816-.021-.116,0-.46.021-.66.021-.063,0-.1-.021-.1-.061s.017-.062.08-.062a.688.688,0,0,0,.178-.019c.1-.028.133-.109.148-.278.023-.236.023-.7.023-1.248Z" transform="translate(-951.502 -2962.966)" fill="#05487c"/><path d="M1019.7,2966c0-.871,0-1.031,0-1.214s-.058-.258-.22-.311a.735.735,0,0,0-.2-.021c-.052,0-.086-.02-.086-.06s.04-.055.115-.055c.265,0,.585.014.729.014.161,0,1.281.007,1.379,0a2.122,2.122,0,0,0,.213-.034l.079-.027.035.053a3.19,3.19,0,0,0-.041.372c0,.06-.017.309-.028.378l-.057.093-.04-.074a.593.593,0,0,0-.036-.209c-.04-.1-.079-.182-.332-.209-.086-.014-.69-.028-.792-.028l-.036.056v1.417l.036.059c.115,0,.769,0,.884-.012a.356.356,0,0,0,.241-.087l.081-.073.04.059c0,.033-.012.128-.04.417-.012.116-.023.345-.023.386l-.052.128-.046-.047c-.005-.06-.005-.134-.018-.21a.275.275,0,0,0-.281-.221c-.09-.014-.665-.026-.793-.026l-.029.061v.457c0,.2,0,.684,0,.853.012.392.166.478.684.478a1.173,1.173,0,0,0,.476-.074c.127-.067.185-.189.219-.425.012-.062.024-.089.059-.089s.045.076.045.136a4.456,4.456,0,0,1-.069.636c-.035.146-.08.146-.269.146-.38,0-.684-.006-.931-.018s-.437-.015-.585-.015c-.059,0-.167.007-.287.007s-.248.013-.351.013c-.063,0-.1-.02-.1-.06s.018-.061.08-.061a.671.671,0,0,0,.178-.019c.1-.028.133-.135.15-.3.022-.243.022-.694.022-1.22Z" transform="translate(-953.343 -2962.928)" fill="#05487c"/><path d="M1026.157,2964.663l-.752.021c-.293.006-.412.046-.489.174a.782.782,0,0,0-.086.2l-.057.075c-.034,0-.045-.035-.045-.095,0-.094.1-.649.108-.695.013-.074.03-.109.058-.109s.092.046.219.068a4.125,4.125,0,0,0,.5.027h2.051a1.967,1.967,0,0,0,.344-.027c.081-.013.12-.027.138-.027.035,0,.041.034.041.123,0,.12-.013.546-.013.694,0,.062-.016.1-.047.1s-.051-.028-.057-.115l-.006-.062c-.011-.148-.143-.322-.6-.331l-.638-.013v2.323c0,.527.007.978.029,1.229.017.162.047.269.2.3a1.688,1.688,0,0,0,.258.019c.057,0,.08.035.08.061s-.04.062-.1.062c-.332,0-.672-.021-.815-.021-.114,0-.459.021-.66.021-.063,0-.1-.021-.1-.062s.017-.061.081-.061a.626.626,0,0,0,.178-.019c.1-.027.132-.135.149-.3.024-.243.024-.694.024-1.221Z" transform="translate(-955.825 -2962.9)" fill="#05487c"/><path d="M1032.345,2967.227a1.308,1.308,0,0,0-.114-.6c-.034-.088-.723-1.349-.9-1.654a1.281,1.281,0,0,0-.327-.406.468.468,0,0,0-.214-.074l-.074-.06c0-.041.035-.055.1-.055.086,0,.466.014.632.014.11,0,.344-.014.573-.014l.075.055c0,.047-.035.047-.116.074l-.068.087a.5.5,0,0,0,.063.2c.093.176.752,1.518.839,1.681.063-.135.677-1.364.752-1.54a.86.86,0,0,0,.073-.3.125.125,0,0,0-.108-.13l-.093-.066c0-.041.03-.055.088-.055.167,0,.344.014.492.014.111,0,.444-.014.542-.014.057,0,.091.014.091.048s-.041.068-.1.068a.553.553,0,0,0-.218.068.714.714,0,0,0-.265.27,19.99,19.99,0,0,0-.982,1.835,1.563,1.563,0,0,0-.063.574v.459c0,.095,0,.33.012.573.012.17.056.277.206.305a1.8,1.8,0,0,0,.254.019c.057,0,.086.035.086.062s-.042.061-.11.061c-.314,0-.653-.021-.791-.021s-.466.021-.656.021c-.068,0-.109-.013-.109-.061,0-.027.022-.062.08-.062a.728.728,0,0,0,.179-.019c.1-.028.143-.135.154-.305.017-.243.017-.478.017-.573Z" transform="translate(-958.507 -2962.966)" fill="#05487c"/><path d="M1042.2,2967.031c0,.556.006.96.029,1.2.019.17.052.277.2.3a1.625,1.625,0,0,0,.246.019c.065,0,.087.034.087.061s-.034.06-.109.06c-.323,0-.678-.02-.811-.02s-.454.02-.641.02c-.07,0-.1-.013-.1-.06,0-.027.017-.061.074-.061a.668.668,0,0,0,.178-.019c.1-.028.133-.135.15-.3.023-.243.023-.668.023-1.22V2966c0-.871,0-1.031-.005-1.214s-.057-.263-.219-.311a.738.738,0,0,0-.2-.021l-.086-.06c0-.041.041-.055.12-.055.258,0,.579.014.724.014.2,0,1.314.007,1.435,0a1.338,1.338,0,0,0,.207-.027l.082-.034.033.053c0,.041-.024.108-.04.256-.006.062-.017.4-.023.465l-.053.115c-.034,0-.062-.026-.062-.094a.537.537,0,0,0-.028-.215.336.336,0,0,0-.322-.176l-.838-.02c-.03,0-.048.013-.048.081v1.391l.036.051.706,0a2.243,2.243,0,0,0,.229-.007.244.244,0,0,0,.214-.1l.069-.059.028.053c0,.033-.022.188-.04.372-.011.114-.018.377-.018.417s0,.128-.056.128l-.047-.081a.587.587,0,0,0-.035-.176.267.267,0,0,0-.241-.209c-.125-.014-.724-.02-.809-.02l-.036.046Z" transform="translate(-963.118 -2962.928)" fill="#05487c"/><path d="M1046.832,2966.478a2.106,2.106,0,0,1,2.118-2.247,1.961,1.961,0,0,1,2.069,2.147,2.15,2.15,0,0,1-2.12,2.348,2.082,2.082,0,0,1-2.067-2.248m3.434.109c0-1.269-.648-2.052-1.463-2.052-.564,0-1.224.35-1.224,1.767,0,1.182.574,2.114,1.529,2.114.355,0,1.159-.2,1.159-1.829" transform="translate(-965.726 -2962.9)" fill="#05487c"/><path d="M1056.013,2966.038c0-.871,0-1.032-.007-1.215s-.057-.258-.216-.311a.769.769,0,0,0-.2-.021c-.051,0-.086-.02-.086-.06s.041-.055.115-.055c.264,0,.586.014.688.014.174,0,.633-.014.789-.014a1.548,1.548,0,0,1,.958.245,1.046,1.046,0,0,1,.355.788,1.736,1.736,0,0,1-.7,1.269c.448.647.8,1.168,1.108,1.525a.924.924,0,0,0,.541.379.453.453,0,0,0,.12.012l.062.062c0,.048-.035.061-.1.061h-.483a.969.969,0,0,1-.552-.115,2.544,2.544,0,0,1-.688-.844c-.2-.311-.413-.695-.478-.783l-.09-.041-.455-.013-.039.048v.081c0,.531,0,.978.028,1.22.018.17.041.277.2.305a1.763,1.763,0,0,0,.248.019l.062.062c0,.041-.04.061-.1.061-.292,0-.711-.021-.785-.021-.1,0-.421.021-.621.021-.063,0-.1-.021-.1-.061s.016-.062.078-.062a.7.7,0,0,0,.178-.019c.1-.028.132-.135.15-.305.022-.243.022-.694.022-1.22Zm.644.446c0,.059.011.081.047.1a1.161,1.161,0,0,0,.383.055c.2,0,.271-.02.357-.1a1.033,1.033,0,0,0,.328-.849c0-.811-.471-1.021-.77-1.021a1.348,1.348,0,0,0-.3.023l-.047.08Z" transform="translate(-969.609 -2962.966)" fill="#05487c"/><path d="M1066.737,2964.663l-.752.021c-.294.006-.413.046-.488.174a.794.794,0,0,0-.087.2l-.057.075c-.033,0-.045-.035-.045-.095,0-.094.1-.649.108-.695.012-.074.031-.109.058-.109s.092.046.217.068a4.165,4.165,0,0,0,.506.027h2.052a2,2,0,0,0,.345-.027c.08-.013.119-.027.136-.027.034,0,.042.034.042.123,0,.12-.013.546-.013.694,0,.062-.016.1-.046.1s-.051-.028-.057-.115l-.006-.062c-.011-.148-.144-.322-.6-.331l-.638-.013v2.323c0,.527.007.978.03,1.229.017.162.046.269.2.3a1.662,1.662,0,0,0,.258.019c.057,0,.081.035.081.061s-.04.062-.1.062c-.333,0-.672-.021-.815-.021-.115,0-.459.021-.661.021-.062,0-.1-.021-.1-.062s.018-.061.081-.061a.651.651,0,0,0,.179-.019c.1-.027.131-.135.148-.3.024-.243.024-.694.024-1.221Z" transform="translate(-974 -2962.9)" fill="#05487c"/><path d="M1075.464,2966.247l.028-.04v-.121c0-.871-.006-1.079-.012-1.262s-.056-.258-.217-.311a.74.74,0,0,0-.195-.021c-.059,0-.088-.02-.088-.06s.035-.055.11-.055c.268,0,.624.014.759.014.119,0,.453-.014.646-.014.077,0,.11.014.11.055s-.034.06-.093.06a.655.655,0,0,0-.148.021c-.134.027-.174.109-.184.311-.012.183-.012.344-.012,1.215v1.013c0,.526,0,.978.022,1.229.018.161.047.269.2.3a1.662,1.662,0,0,0,.257.019.073.073,0,0,1,.08.062c0,.041-.038.061-.1.061-.327,0-.66-.021-.8-.021-.116,0-.472.021-.666.021-.069,0-.108-.021-.108-.061s.023-.062.079-.062a.715.715,0,0,0,.184-.019c.1-.028.131-.135.15-.305.022-.243.022-.681.022-1.207v-.439l-.028-.035h-1.908l-.034.035v.439c0,.526.006.964.029,1.215.018.161.047.269.2.3a1.739,1.739,0,0,0,.258.019c.058,0,.08.035.08.062s-.041.061-.1.061c-.327,0-.677-.021-.822-.021-.115,0-.448.021-.649.021-.063,0-.1-.021-.1-.061s.016-.062.079-.062a.7.7,0,0,0,.179-.019c.1-.028.131-.135.148-.305.023-.243.023-.694.023-1.22v-1.013c0-.871,0-1.032-.006-1.215s-.057-.258-.218-.311a.76.76,0,0,0-.2-.021c-.051,0-.086-.02-.086-.06s.041-.055.11-.055c.268,0,.6.014.739.014.122,0,.473-.014.672-.014.07,0,.105.014.105.055s-.029.06-.093.06a.582.582,0,0,0-.143.021c-.138.027-.178.109-.191.311-.012.183-.012.391-.012,1.262v.121l.034.04Z" transform="translate(-977.148 -2962.966)" fill="#05487c"/><path d="M1081.859,2966c0-.871,0-1.031-.007-1.214s-.057-.258-.216-.311a.76.76,0,0,0-.2-.021c-.05,0-.085-.02-.085-.06s.04-.055.113-.055c.266,0,.588.014.731.014.161,0,1.281.007,1.379,0a2.087,2.087,0,0,0,.213-.034l.08-.027.033.053a3.189,3.189,0,0,0-.04.372c-.005.06-.017.309-.028.378l-.057.093-.041-.074a.645.645,0,0,0-.035-.209c-.04-.1-.08-.182-.333-.209-.085-.014-.688-.028-.792-.028l-.035.056v1.417l.035.059c.114,0,.77,0,.885-.012a.362.362,0,0,0,.24-.087l.082-.073.039.059c0,.033-.011.128-.039.417-.014.116-.023.345-.023.386l-.052.128-.046-.047c-.005-.06-.005-.134-.018-.21a.277.277,0,0,0-.281-.221c-.091-.014-.666-.026-.794-.026l-.028.061v.457c0,.2,0,.684,0,.853.013.392.167.478.683.478a1.174,1.174,0,0,0,.477-.074c.127-.067.184-.189.218-.425.012-.062.024-.089.058-.089s.045.076.045.136a4.66,4.66,0,0,1-.068.636c-.036.146-.081.146-.271.146-.379,0-.683-.006-.93-.018s-.437-.015-.586-.015c-.056,0-.166.007-.287.007s-.247.013-.351.013c-.064,0-.1-.02-.1-.06s.016-.061.078-.061a.674.674,0,0,0,.177-.019c.1-.028.133-.135.15-.3.022-.243.022-.694.022-1.22Z" transform="translate(-981.185 -2962.928)" fill="#05487c"/><path d="M1098.5,2966.038c0-.871,0-1.032-.005-1.215s-.056-.258-.218-.311a.753.753,0,0,0-.2-.021c-.051,0-.085-.02-.085-.06s.041-.055.114-.055c.264,0,.586.014.691.014.17,0,.629-.014.786-.014a1.551,1.551,0,0,1,.959.245,1.048,1.048,0,0,1,.356.788,1.735,1.735,0,0,1-.7,1.269c.448.647.8,1.168,1.11,1.525a.921.921,0,0,0,.54.379.458.458,0,0,0,.12.012l.061.062c0,.048-.033.061-.1.061h-.482a.972.972,0,0,1-.552-.115,2.564,2.564,0,0,1-.689-.844c-.2-.311-.413-.695-.478-.783l-.09-.041-.454-.013-.038.048v.081c0,.531,0,.978.027,1.22.018.17.04.277.2.305a1.772,1.772,0,0,0,.247.019l.061.062c0,.041-.039.061-.1.061-.292,0-.71-.021-.785-.021-.1,0-.422.021-.621.021-.064,0-.1-.021-.1-.061s.016-.062.08-.062a.689.689,0,0,0,.178-.019c.1-.028.132-.135.149-.305.023-.243.023-.694.023-1.22Zm.645.446c0,.059.009.081.045.1a1.167,1.167,0,0,0,.384.055c.2,0,.271-.02.357-.1a1.031,1.031,0,0,0,.327-.849c0-.811-.47-1.021-.768-1.021a1.36,1.36,0,0,0-.3.023l-.045.08Z" transform="translate(-988.638 -2962.966)" fill="#05487c"/><path d="M1105.047,2966.478a2.107,2.107,0,0,1,2.119-2.247,1.96,1.96,0,0,1,2.067,2.147,2.15,2.15,0,0,1-2.118,2.348,2.083,2.083,0,0,1-2.068-2.248m3.435.109c0-1.269-.649-2.052-1.465-2.052-.562,0-1.222.35-1.222,1.767,0,1.182.572,2.114,1.526,2.114.356,0,1.161-.2,1.161-1.829" transform="translate(-991.8 -2962.9)" fill="#05487c"/><path d="M1114.223,2964.342c.012-.094.057-.149.1-.149s.087.029.156.184l1.355,3.171,1.355-3.213c.041-.095.085-.143.131-.143s.1.062.115.184l.459,3.529c.046.357.091.512.248.566a.868.868,0,0,0,.287.055l.08.055c0,.047-.058.066-.131.066-.128,0-.845-.019-1.046-.034-.121-.007-.15-.032-.15-.066l.057-.062c.029-.014.04-.081.024-.242l-.281-2.478h-.019l-1.085,2.538c-.114.271-.144.326-.2.326s-.122-.117-.2-.291c-.12-.264-.523-1.142-.58-1.3-.039-.108-.338-.8-.5-1.2h-.018l-.241,2.213a2.287,2.287,0,0,0-.017.27c0,.108.069.149.154.169a.77.77,0,0,0,.179.026l.081.055c0,.054-.046.068-.121.068-.214,0-.443-.021-.534-.021s-.339.021-.5.021c-.051,0-.093-.014-.093-.068,0-.027.028-.055.08-.055a.884.884,0,0,0,.154-.012c.137-.021.184-.252.207-.44Z" transform="translate(-995.488 -2962.883)" fill="#05487c"/><path d="M1123.243,2966.478a2.106,2.106,0,0,1,2.118-2.247,1.961,1.961,0,0,1,2.069,2.147,2.15,2.15,0,0,1-2.12,2.348,2.082,2.082,0,0,1-2.067-2.248m3.433.109c0-1.269-.648-2.052-1.464-2.052-.562,0-1.223.35-1.223,1.767,0,1.182.575,2.114,1.527,2.114.357,0,1.16-.2,1.16-1.829" transform="translate(-999.95 -2962.9)" fill="#05487c"/><path d="M1132.895,2964.663l-.751.021c-.293.006-.413.046-.49.174a.732.732,0,0,0-.085.2l-.057.075c-.035,0-.047-.035-.047-.095,0-.094.1-.649.109-.695.012-.074.029-.109.057-.109s.093.046.219.068a4.156,4.156,0,0,0,.507.027h2.048a1.96,1.96,0,0,0,.345-.027c.08-.013.121-.027.138-.027.034,0,.04.034.04.123,0,.12-.012.546-.012.694,0,.062-.016.1-.044.1s-.052-.028-.058-.115l-.007-.062c-.011-.148-.142-.322-.6-.331l-.638-.013v2.323c0,.527.006.978.027,1.229.019.162.047.269.2.3a1.676,1.676,0,0,0,.259.019c.057,0,.08.035.08.061s-.041.062-.1.062c-.333,0-.673-.021-.815-.021-.116,0-.46.021-.661.021-.063,0-.1-.021-.1-.062s.016-.061.079-.061a.632.632,0,0,0,.178-.019c.1-.027.132-.135.15-.3.023-.243.023-.694.023-1.221Z" transform="translate(-1003.632 -2962.9)" fill="#05487c"/><path d="M1139.062,2966.038c0-.871,0-1.032-.006-1.215s-.065-.263-.173-.3a.511.511,0,0,0-.183-.028c-.053,0-.082-.013-.082-.068,0-.033.041-.048.121-.048.19,0,.534.014.679.014.125,0,.453-.014.648-.014.064,0,.1.014.1.048,0,.055-.029.068-.081.068a.567.567,0,0,0-.149.021c-.138.027-.178.109-.19.311-.01.183-.01.344-.01,1.215v1.013c0,.552,0,1.012.022,1.255.017.154.051.243.2.271a1.761,1.761,0,0,0,.258.019c.057,0,.08.035.08.062s-.04.061-.1.061c-.332,0-.678-.021-.814-.021-.115,0-.459.021-.66.021-.064,0-.1-.021-.1-.061s.017-.062.082-.062a.691.691,0,0,0,.177-.019c.1-.028.131-.109.15-.278.024-.236.024-.7.024-1.248Z" transform="translate(-1006.836 -2962.966)" fill="#05487c"/><path d="M1142.655,2966.478a2.1,2.1,0,0,1,2.119-2.247,1.96,1.96,0,0,1,2.066,2.147,2.149,2.149,0,0,1-2.119,2.348,2.082,2.082,0,0,1-2.066-2.248m3.433.109c0-1.269-.648-2.052-1.464-2.052-.563,0-1.224.35-1.224,1.767,0,1.182.576,2.114,1.529,2.114.356,0,1.159-.2,1.159-1.829" transform="translate(-1008.644 -2962.9)" fill="#05487c"/><path d="M1152.086,2967.852c.012.445.075.582.172.62a.732.732,0,0,0,.265.041c.057,0,.085.028.085.062s-.044.061-.113.061c-.328,0-.563-.021-.656-.021-.044,0-.286.021-.545.021-.068,0-.113-.006-.113-.061l.08-.062a.892.892,0,0,0,.23-.026c.131-.041.15-.2.155-.7l.047-3.4c0-.115.034-.2.085-.2s.131.089.219.19c.062.074.82.985,1.556,1.829.344.4,1.016,1.209,1.093,1.288h.023l-.054-2.551c-.005-.35-.051-.453-.172-.5a.714.714,0,0,0-.263-.034c-.064,0-.081-.027-.081-.061s.052-.055.127-.055c.264,0,.534.015.642.015.059,0,.249-.015.494-.015.07,0,.116.007.116.055s-.03.061-.087.061a.441.441,0,0,0-.155.021c-.138.048-.178.148-.183.474l-.056,3.615c0,.129-.041.183-.082.183a.291.291,0,0,1-.207-.121c-.315-.346-.948-1.054-1.476-1.655-.55-.62-1.085-1.315-1.182-1.417h-.017Z" transform="translate(-1012.463 -2962.883)" fill="#05487c"/><path d="M1163.116,2966.478a2.106,2.106,0,0,1,2.119-2.247,1.96,1.96,0,0,1,2.066,2.147,2.149,2.149,0,0,1-2.118,2.348,2.083,2.083,0,0,1-2.067-2.248m3.433.109c0-1.269-.648-2.052-1.464-2.052-.564,0-1.222.35-1.222,1.767,0,1.182.572,2.114,1.526,2.114.355,0,1.16-.2,1.16-1.829" transform="translate(-1017.809 -2962.9)" fill="#05487c"/><path d="M1172.974,2967.031c0,.556.007.96.03,1.2.017.17.052.277.2.3a1.613,1.613,0,0,0,.245.019c.064,0,.087.034.087.061s-.033.06-.108.06c-.323,0-.678-.02-.809-.02s-.454.02-.645.02c-.069,0-.1-.013-.1-.06,0-.027.017-.061.075-.061a.674.674,0,0,0,.178-.019c.1-.028.131-.135.149-.3.022-.243.022-.668.022-1.22V2966c0-.871,0-1.031,0-1.214s-.059-.263-.219-.311a.739.739,0,0,0-.2-.021l-.085-.06c0-.041.04-.055.118-.055.26,0,.58.014.724.014.2,0,1.316.007,1.437,0a1.347,1.347,0,0,0,.207-.027l.081-.034.033.053c0,.041-.022.108-.04.256,0,.062-.016.4-.024.465l-.05.115c-.035,0-.064-.026-.064-.094a.515.515,0,0,0-.028-.215.335.335,0,0,0-.321-.176l-.839-.02c-.028,0-.047.013-.047.081v1.391l.035.051.706,0a2.28,2.28,0,0,0,.23-.007.242.242,0,0,0,.213-.1l.068-.059.028.053c0,.033-.023.188-.039.372-.011.114-.018.377-.018.417s0,.128-.057.128l-.046-.081a.616.616,0,0,0-.034-.176.268.268,0,0,0-.243-.209c-.125-.014-.723-.02-.809-.02l-.035.046Z" transform="translate(-1021.693 -2962.928)" fill="#05487c"/><path d="M1181.383,2967.485c-.1-.052-.121-.089-.121-.254,0-.411.025-.859.033-.979s.025-.194.075-.194.065.066.065.128a1.729,1.729,0,0,0,.057.379.891.891,0,0,0,.906.754.832.832,0,0,0,.852-.851,1.5,1.5,0,0,0-.623-1.195l-.291-.27a2.312,2.312,0,0,1-.941-1.771,1.373,1.373,0,0,1,1.467-1.411,2.711,2.711,0,0,1,.844.125c.057.017.088.039.088.092,0,.1-.024.314-.024.9,0,.163-.021.225-.071.225s-.064-.045-.064-.136a.99.99,0,0,0-.165-.492.768.768,0,0,0-.691-.367.72.72,0,0,0-.756.77c0,.343.147.6.673,1.077l.178.156a2.382,2.382,0,0,1,1.041,1.9,1.593,1.593,0,0,1-.6,1.3,1.618,1.618,0,0,1-1.008.307,1.907,1.907,0,0,1-.927-.194" transform="translate(-1025.937 -2961.822)" fill="#05487c"/><path d="M1188.05,2968.105a2.487,2.487,0,0,1-.041-3.267,2.079,2.079,0,0,1,1.6-.608,4.41,4.41,0,0,1,.735.061c.189.033.356.074.5.093.058.009.075.034.075.069s-.012.114-.023.317-.012.507-.017.62c-.006.083-.024.142-.069.142s-.052-.047-.052-.121a.885.885,0,0,0-.2-.534,1.3,1.3,0,0,0-.977-.337,1.233,1.233,0,0,0-.954.323,2.062,2.062,0,0,0-.464,1.493,1.8,1.8,0,0,0,1.572,2.011c.449,0,.695-.041.9-.3a1.034,1.034,0,0,0,.172-.385c.012-.087.023-.114.064-.114l.057.1a5.858,5.858,0,0,1-.109.762.194.194,0,0,1-.133.17,2.563,2.563,0,0,1-.913.127,2.343,2.343,0,0,1-1.734-.621" transform="translate(-1028.693 -2962.9)" fill="#05487c"/><path d="M1195.387,2966.038c0-.871,0-1.032,0-1.215s-.065-.263-.175-.3a.506.506,0,0,0-.183-.028c-.051,0-.08-.013-.08-.068,0-.033.041-.048.121-.048.19,0,.533.014.677.014.128,0,.455-.014.648-.014.064,0,.1.014.1.048,0,.055-.029.068-.079.068a.554.554,0,0,0-.149.021c-.139.027-.178.109-.189.311-.015.183-.015.344-.015,1.215v1.013c0,.552,0,1.012.026,1.255.016.154.051.243.2.271a1.753,1.753,0,0,0,.259.019c.057,0,.081.035.081.062s-.04.061-.1.061c-.332,0-.679-.021-.817-.021-.114,0-.458.021-.658.021-.063,0-.1-.021-.1-.061s.017-.062.08-.062a.682.682,0,0,0,.178-.019c.1-.028.132-.109.151-.278.021-.236.021-.7.021-1.248Z" transform="translate(-1032.065 -2962.966)" fill="#05487c"/><path d="M1199.564,2966c0-.871,0-1.031-.005-1.214s-.057-.258-.218-.311a.768.768,0,0,0-.2-.021c-.051,0-.086-.02-.086-.06s.04-.055.114-.055c.265,0,.586.014.73.014.161,0,1.281.007,1.38,0s.17-.027.212-.034l.079-.027.034.053a3.13,3.13,0,0,0-.04.372c-.005.06-.017.309-.03.378l-.055.093-.04-.074a.613.613,0,0,0-.036-.209c-.04-.1-.082-.182-.333-.209-.087-.014-.689-.028-.793-.028l-.034.056v1.417l.034.059c.116,0,.77,0,.885-.012a.359.359,0,0,0,.24-.087l.08-.073.042.059c0,.033-.012.128-.042.417-.012.116-.023.345-.023.386l-.052.128-.046-.047c-.006-.06-.006-.134-.018-.21a.274.274,0,0,0-.281-.221c-.091-.014-.666-.026-.792-.026l-.028.061v.457c0,.2-.006.684,0,.853.01.392.166.478.683.478a1.179,1.179,0,0,0,.476-.074c.128-.067.183-.189.218-.425.012-.062.025-.089.058-.089s.045.076.045.136a4.66,4.66,0,0,1-.068.636c-.035.146-.081.146-.27.146-.38,0-.684-.006-.931-.018s-.436-.015-.585-.015c-.059,0-.167.007-.287.007s-.248.013-.351.013c-.063,0-.1-.02-.1-.06s.017-.061.08-.061a.678.678,0,0,0,.178-.019c.1-.028.133-.135.149-.3.024-.243.024-.694.024-1.22Z" transform="translate(-1033.905 -2962.928)" fill="#05487c"/><path d="M1205.8,2967.852c.011.445.074.582.172.62a.729.729,0,0,0,.265.041c.057,0,.086.028.086.062s-.045.061-.116.061c-.326,0-.562-.021-.655-.021-.046,0-.288.021-.545.021-.07,0-.115-.006-.115-.061l.081-.062a.9.9,0,0,0,.23-.026c.132-.041.15-.2.154-.7l.047-3.4c0-.115.035-.2.087-.2s.131.089.218.19c.064.074.821.985,1.555,1.829.346.4,1.018,1.209,1.092,1.288h.024l-.052-2.551c-.006-.35-.052-.453-.173-.5a.71.71,0,0,0-.264-.034c-.063,0-.08-.027-.08-.061s.053-.055.127-.055c.264,0,.533.015.643.015.057,0,.247-.015.494-.015.069,0,.114.007.114.055s-.028.061-.087.061a.426.426,0,0,0-.153.021c-.139.048-.178.148-.183.474l-.057,3.615c0,.129-.042.183-.081.183a.287.287,0,0,1-.207-.121c-.316-.346-.948-1.054-1.476-1.655-.55-.62-1.086-1.315-1.183-1.417h-.018Z" transform="translate(-1036.521 -2962.883)" fill="#05487c"/><path d="M1214.345,2968.105a2.315,2.315,0,0,1-.632-1.694,2.339,2.339,0,0,1,.59-1.573,2.081,2.081,0,0,1,1.6-.608,4.387,4.387,0,0,1,.735.061c.19.033.356.074.506.093.057.009.074.034.074.069s-.012.114-.022.317-.012.507-.018.62c-.006.083-.023.142-.068.142s-.051-.047-.051-.121a.892.892,0,0,0-.2-.534,1.293,1.293,0,0,0-.975-.337,1.226,1.226,0,0,0-.953.323,2.052,2.052,0,0,0-.466,1.493,1.8,1.8,0,0,0,1.573,2.011c.448,0,.695-.041.9-.3a1.021,1.021,0,0,0,.173-.385c.01-.087.022-.114.062-.114l.057.1a5.858,5.858,0,0,1-.109.762.194.194,0,0,1-.131.17,2.567,2.567,0,0,1-.914.127,2.34,2.34,0,0,1-1.733-.621" transform="translate(-1040.471 -2962.9)" fill="#05487c"/><path d="M1221.626,2966c0-.871,0-1.031,0-1.214s-.059-.258-.219-.311a.738.738,0,0,0-.2-.021c-.051,0-.086-.02-.086-.06s.042-.055.115-.055c.265,0,.585.014.73.014s1.28.007,1.378,0a1.976,1.976,0,0,0,.211-.034l.082-.027.035.053a2.924,2.924,0,0,0-.041.372c-.006.06-.017.309-.028.378l-.057.093-.041-.074a.624.624,0,0,0-.034-.209c-.041-.1-.081-.182-.332-.209-.087-.014-.69-.028-.793-.028l-.036.056v1.417l.036.059c.114,0,.769,0,.884-.012a.362.362,0,0,0,.242-.087l.081-.073.039.059c0,.033-.011.128-.039.417-.012.116-.024.345-.024.386l-.051.128-.047-.047a1.944,1.944,0,0,0-.017-.21.274.274,0,0,0-.281-.221c-.091-.014-.664-.026-.791-.026l-.031.061v.457c0,.2,0,.684,0,.853.013.392.167.478.685.478a1.175,1.175,0,0,0,.477-.074c.126-.067.185-.189.218-.425.011-.062.023-.089.057-.089s.047.076.047.136a4.737,4.737,0,0,1-.069.636c-.035.146-.081.146-.27.146-.381,0-.684-.006-.932-.018s-.436-.015-.586-.015c-.057,0-.167.007-.286.007s-.248.013-.351.013c-.063,0-.1-.02-.1-.06s.016-.061.081-.061a.691.691,0,0,0,.178-.019c.1-.028.13-.135.147-.3.024-.243.024-.694.024-1.22Z" transform="translate(-1043.786 -2962.928)" fill="#05487c"/><path d="M1091.251,2964.174c0-1.134,0-1.344-.013-1.581-.013-.255-.065-.374-.275-.426a1.1,1.1,0,0,0-.247-.022c-.07,0-.107-.015-.107-.068s.044-.067.138-.067c.336,0,.738.024.916.024.258,0,.627-.024.919-.024a1.291,1.291,0,0,1,1.5,1.314,1.636,1.636,0,0,1-1.56,1.807l-.134-.009c-.031-.007-.075-.014-.075-.067s.044-.082.177-.082l.1-.01a1.2,1.2,0,0,0,.754-1.222,1.588,1.588,0,0,0-.375-1.118.864.864,0,0,0-.636-.292.764.764,0,0,0-.247.03c-.032.015-.052.06-.052.142v2.985c0,.687,0,1.276.033,1.6.019.209.057.372.249.4a2.477,2.477,0,0,0,.322.03c.07,0,.1.021.1.06s-.05.073-.12.073c-.42,0-.82-.023-.984-.023-.145,0-.547.023-.8.023-.083,0-.127-.023-.127-.073s.027-.06.1-.06a.974.974,0,0,0,.23-.03c.125-.031.158-.195.183-.411.033-.315.033-.9.033-1.591Z" transform="translate(-985.333 -2961.906)" fill="#05487c"/><path d="M1093.481,2967.383l-.5,0v.151s.38.009.611-.007Z" transform="translate(-986.396 -2964.313)" fill="#05487c"/><path d="M968.214,2966.038c0-.871,0-1.032-.005-1.215s-.057-.258-.219-.311a.74.74,0,0,0-.2-.021c-.051,0-.085-.02-.085-.06s.04-.055.115-.055c.263,0,.584.014.729.014.206,0,.607-.014.837-.014a1.182,1.182,0,0,1,.943.325,1.081,1.081,0,0,1,.253.688,1.3,1.3,0,0,1-1.269,1.39l-.15-.007-.062-.059c0-.049.056-.075.166-.075a.857.857,0,0,0,.678-.931,1.182,1.182,0,0,0-.3-.852.741.741,0,0,0-.723-.189c-.03.013-.041.047-.041.108v2.275c0,.526,0,.978.024,1.229.018.161.045.269.2.3a1.811,1.811,0,0,0,.258.019c.057,0,.081.035.081.062s-.04.061-.093.061c-.339,0-.695-.021-.826-.021-.115,0-.437.021-.638.021-.061,0-.1-.021-.1-.061s.017-.062.081-.062a.692.692,0,0,0,.178-.019c.1-.028.131-.135.149-.305.023-.243.023-.694.023-1.22Z" transform="translate(-930.284 -2962.966)" fill="#05487c"/><path d="M969.628,2968.618l.534,0-.147-.135H969.6Z" transform="translate(-931.134 -2964.805)" fill="#05487c"/><path d="M925.568,2978.491a3.77,3.77,0,0,0-1.868-.581c-.385-.176.065-.33.341-.364.592-.071,1.384.3,1.453.219s-.384-.768-1.3-.935c-.463-.129-.956-.143-1.058-.269-.04-.148,1.181-.285,1.4-.315a4.983,4.983,0,0,1,.914.166v-.127a2.966,2.966,0,0,0-3.017-.722l-.035-.035a1.811,1.811,0,0,1,.97-.6,4.494,4.494,0,0,1,1.6-.175,1.928,1.928,0,0,0,.25-.042c-.025-.116-.139-.18-.31-.281a2.969,2.969,0,0,0-3.06.209l-.033-.071a1.824,1.824,0,0,1,1.2-.947c.252-.044.791-.176,1.008-.235l-.085-.109a3.237,3.237,0,0,0-2.821.139c-.243.125-.769.56-.859.425.1-.749,1.078-1.111,1.053-1.262a2.106,2.106,0,0,0-.94.091,2.987,2.987,0,0,0-2.13,2.532c-.118.061-.257,0-.381.058,0,.114-.024.07.026.133l1.5.013.05.055a.239.239,0,0,1-.056.155h-1.519a1.953,1.953,0,0,1,0,.37h2.16l.069.115-.035.069-2.194.014c0,.171.009.309,0,.451,1.124,0,1.7.026,2.772.026l.042.131c0,.07-.082.035-.118.07h-2.7v.453h3.44l.047.1-.047.1c-1.224.007-2.217,0-3.44,0V2978h4.272l.084.125c-.016.073-.1.162-.169.117h-5.027a2.244,2.244,0,0,1-1.524-.751c-.361.473-.484.584-.877,1.055l-.149-.139c.913-1.272,1.6-2.046,2.531-3.31a1.559,1.559,0,0,0-.263-.387,7.531,7.531,0,0,0-1.344-1.217c-.074-.01-.124.112-.151.125,0,0,.151.634-.1.871a1.479,1.479,0,0,1-.764.227c-.311.034-.455-.06-.765-.016a.983.983,0,0,0-.557.664,1.127,1.127,0,0,1-.92.608,1.367,1.367,0,0,0-.555,1.056,7.611,7.611,0,0,0-.032,1.586v7.517h14.263v-7.362Zm-11.37.966.2-.3.074-.047.073.015.521.3h.054l.509-.295.086-.02.062.039.208.29.019.085-.056.1.021-.04-.33.166-.019.039.019.039s.162.1.3.162l.075.08-.019.056-.2.293-.074.049-.075-.017-.519-.3h-.054l-.509.294-.085.021-.064-.037-.207-.292-.019-.086.037-.058.327-.167.02-.039-.02-.039-.328-.166-.04-.076Zm0,1.475.2-.3.074-.047c1.058.434.185.424,1.242,0l.062.037.207.29.02.085-.036.063-.329.164-.019.04.019.038.318.151.047.075-.013.071h0l-.2.294-.074.047-.075-.014-.519-.3h-.054l-.509.3-.085.018-.064-.034-.211-.3-.015-.075.055-.1-.019.039.328-.165.02-.038-.02-.04-.328-.166-.04-.077Zm3.265,3.02-.026.066-.889,1.016-.083.037h-1.039l-.048.049v.709a.093.093,0,0,1-.094.094h-1.718a.094.094,0,0,1-.094-.094v-.376a.094.094,0,0,1,.094-.095h1.248v-.239l-.048-.049-1.022,0-.09-.037c-.024-.026-.811-.923-.877-1.033l.02-.14a1.358,1.358,0,0,1,.489-.047l.071.028c.079.078.515.61.562.649l.072.059h.792l.009-.076-.009-.051-1.234-1.175-.006-.225.008-.035.141-.059h2.828l.118.078v.18l-.082.131-1.137,1.1-.01.051.016.076.835-.008.035-.013.6-.681.083-.034c.066,0,.378-.006.453,0s.026.105.035.131m.306-1.925-.013.032,0,.018.044.029h.467a.1.1,0,0,1,.1.095v3.615a.094.094,0,0,1-.1.092h-.376a.092.092,0,0,1-.094-.092v-3.1l-.048-.046h-5.31l-.046.046v3.1a.094.094,0,0,1-.1.092h-.376a.092.092,0,0,1-.093-.092V2982.2a.094.094,0,0,1,.093-.095h.467l.042-.029-.009-.05-.246-.246-.311-.306-.037-.084v-2.328a.094.094,0,0,1,.093-.093h.376a.1.1,0,0,1,.1.093v.412l.046.048h1.217a.1.1,0,0,1,.1.093V2980a.1.1,0,0,1-.1.095h-1.217l-.046.045v.395l.046.046h1.217a.1.1,0,0,1,.1.1v.377a.1.1,0,0,1-.1.094h-1.207l-.044.029.01.052c.085.083.834.832.885.873l.029.011,3.547-.007.032-.016.858-.865.01-.049-.044-.029h-1.2a.1.1,0,0,1-.095-.094v-.377a.1.1,0,0,1,.095-.1h1.216l.048-.046v-.395l-.048-.045h-1.216a.1.1,0,0,1-.095-.095v-.379a.1.1,0,0,1,.095-.093h1.216l.048-.048v-.412a.094.094,0,0,1,.094-.093h.376a.1.1,0,0,1,.1.093l0,2.312-.036.091Zm.558-.546-.006.017v0Zm1.807,3.121a13.05,13.05,0,0,1-.65,1.285,2.275,2.275,0,0,1-.723.016l-.022-.061.029-.067c.05-.05.464-.716.776-1.273l0-.036-.074-.08a2.454,2.454,0,0,1-.827-2.205l.033-.082.067-.028.325,0a.1.1,0,0,1,.094.094c.007.973.206,1.53.591,1.751l.061-.008a.216.216,0,0,0,.063-.11,9.528,9.528,0,0,0,.273-1.885v0l-.036-.045c-.806-.2-1.4-1.431-1.416-2.785,0-.087.028-.114.1-.114h.374a.1.1,0,0,1,.094.093,2.6,2.6,0,0,0,.844,2.2l.046,0,.022-.039v-.175a7.227,7.227,0,0,0-.24-1.942l-.01-.053.063-.089.385,0c.083,0,.123.082.151.16a7.944,7.944,0,0,1,.211,1.924l0,.124.023.043.049,0a1.075,1.075,0,0,0,.245-.18,2.98,2.98,0,0,0,.609-1.891v-.048a.094.094,0,0,1,.092-.095h.351l.1.046.03.126a3.437,3.437,0,0,1-.772,2.253,1.59,1.59,0,0,1-.716.438l-.035.042a10.267,10.267,0,0,1-.3,1.97l.016.047.05.006a.935.935,0,0,0,.287-.2,2.094,2.094,0,0,0,.508-1.486l-.005-.068h.005a.1.1,0,0,1,.091-.094l.356,0,.085.033.029.064,0,.073a2.732,2.732,0,0,1-.667,1.915,1.4,1.4,0,0,1-1,.417Zm5.383,1.214a.093.093,0,0,1-.095.092h-.376a.093.093,0,0,1-.095-.092v-.2l-.046-.047h-2a.1.1,0,0,1-.1-.1v-2.633a.1.1,0,0,1,.1-.094h.378a.094.094,0,0,1,.092.094v2.116l.048.048h.275l.047-.048v-2.808l-.047-.048h-.86l-.046.043a12.164,12.164,0,0,1-.233,1.563,6.582,6.582,0,0,1-.909,2.177.321.321,0,0,1-.135.048c-.059,0-.567.007-.613-.012l-.069-.1.034-.071a4.769,4.769,0,0,0,1.139-2.161,13.711,13.711,0,0,0,.285-2.938c0-1.021.558-1.706,1.389-1.706h1.671a.1.1,0,0,1,.094.1v.377a.1.1,0,0,1-.094.092h-1.624c-.375,0-.646.25-.765.705l.009.04.037.02h2.342a.094.094,0,0,1,.094.094v.377a.1.1,0,0,1-.094.1H922.9l-.046.044-.013.608.013.034.033.014h2.465a.1.1,0,0,1,.094.094V2982a.1.1,0,0,1-.094.093h-.995l-.047.048v.587l.03.047a2.073,2.073,0,0,1,1.174,1.735Zm-.565-1.3v.438l-.046.048h-.546l-.047-.048V2983.5l.027-.042.051.006a1.492,1.492,0,0,1,.561,1.045m-6.631-3.015v0l.006-.012Zm-2.722,2.018-.414.411-.089.018-.089-.018-.41-.411-.013-.114.055-.034h.917l.055.034Zm-.7-10.546a3.833,3.833,0,0,0-1.149-.236.126.126,0,0,1-.07-.192,1.774,1.774,0,0,1,.842-.542l-.014.132-.029.135c.014.056.014.1.056.074a1.514,1.514,0,0,1,.733-.243c.068.208-.341.644.1.419a.935.935,0,0,1,.536-.168c-.018.125-.151.261-.034.386.318-.042.587-.292.939-.151a.559.559,0,0,0-.216.452c.1.11.216-.058.333-.05a.943.943,0,0,1,.4-.017.6.6,0,0,0-.2.37c.176.149.453.157.62.316-.009.16-.243.2-.344.281-.27.068-.417.128-.717.2a5.667,5.667,0,0,0-1.788-1.17m-1.7-.808-.082.053a1.171,1.171,0,0,0-.132.559v.094l-.013.258c-.047.082-.109.093-.247.1l-.228.033-.03.013-.082.043c-.047.02-.1-.005-.19.082l-.03.069.011.041.1.05a2.585,2.585,0,0,1,.978.036l.1-.056-.011.026.091-.091c.055-.043.08-.028.125-.138a.163.163,0,0,0-.037-.179,1.386,1.386,0,0,1-.182-.684.56.56,0,0,0-.062-.268Zm.513,2.035a.575.575,0,0,1-.1-.348c.076-.164.2-.216.089-.417-.065-.115.135-.35.177-.311.013.015-.021.222.061.288a.892.892,0,0,0,.592.13c.038.118-.1.153-.17.184-.281.014-.23-.035-.266-.006s.029.125.167.179.409.177.516-.075c.055-.1-.086-.44.022-.448s.277.427.249.688-.451.439-.679.4a1.727,1.727,0,0,1-.659-.257m.394-1.151a.292.292,0,0,1,.316.1c0,.049,0,.182-.057.219a.28.28,0,0,1-.287-.113.2.2,0,0,1,.029-.2m-2.03,2.492a.844.844,0,0,1-.523-.716.672.672,0,0,1,.349-.611,2.032,2.032,0,0,1,.7-.262,1.188,1.188,0,0,1,.485-.109c.137.12.46.332.376.438a2.813,2.813,0,0,0-.622.873c-.193.263-.442.493-.765.387m5.559-.3c.009,1,0,2.788,0,2.788a2.47,2.47,0,0,1-1.992-.711l1.592-2.062a1.185,1.185,0,0,1,.4-.015" transform="translate(-905.121 -2966.38)" fill="#05487c"/><path d="M904.956,2977.708a10.579,10.579,0,1,0,10.579-10.577,10.592,10.592,0,0,0-10.579,10.577m.189,0a10.389,10.389,0,1,1,10.39,10.39,10.4,10.4,0,0,1-10.39-10.39" transform="translate(-902.179 -2964.199)" fill="#05487c"/><path d="M900.536,2975.73a13.019,13.019,0,1,0,13.02-13.018,13.035,13.035,0,0,0-13.02,13.018m.181,0a12.839,12.839,0,1,1,12.839,12.84,12.853,12.853,0,0,1-12.839-12.84" transform="translate(-900.2 -2962.22)" fill="#05487c"/><path d="M899.927,2975.457a13.355,13.355,0,1,0,13.356-13.354,13.372,13.372,0,0,0-13.356,13.354m.181,0a13.174,13.174,0,1,1,13.175,13.175,13.188,13.188,0,0,1-13.175-13.175" transform="translate(-899.927 -2961.947)" fill="#05487c"/><path d="M909.4,3001.644a.316.316,0,1,1-.008-.448.314.314,0,0,1,.008.448" transform="translate(-903.927 -2979.418)" fill="#05487c"/><path d="M910.717,3003.115c-.109.147-.186.255-.227.325l-.005.119.062.054.011.033-.041,0c-.086-.063-.176-.139-.212-.164s-.124-.083-.175-.12l-.014-.037h.03l.052.029.1-.052c.053-.061.135-.173.244-.32l.2-.27c.169-.23.2-.273.234-.323s.037-.081,0-.125l-.049-.044-.011-.032.043.009c.069.051.151.116.19.145s.348.258.381.28l.061.033.028.007v.021l-.062.06-.1.119-.035.021v-.039l.034-.062-.05-.109-.221-.17-.027.014-.271.369v.021l.189.136.062.042.076.016.03,0,0,.019-.083.093-.085.108-.041.022,0-.031.024-.053-.023-.1-.21-.165-.019.006Z" transform="translate(-904.49 -2979.9)" fill="#05487c"/><path d="M912.4,3004.1a.694.694,0,0,1,.969-.3.646.646,0,0,1,.246.95.709.709,0,0,1-.988.331.684.684,0,0,1-.228-.978m.966.587c.206-.366.145-.7-.089-.825-.161-.091-.407-.1-.636.308-.191.34-.177.7.1.853.1.059.364.132.628-.335" transform="translate(-905.464 -2980.578)" fill="#05487c"/><path d="M915.272,3005.2c.105-.267.127-.316.147-.374s.012-.084-.03-.12l-.058-.031-.018-.029.041,0c.082.032.183.078.229.1l.2.073.027.03-.033.009-.048-.012c-.043-.008-.066.012-.093.071s-.046.106-.152.371l-.1.246c-.1.256-.1.374-.051.472a.3.3,0,0,0,.167.149.288.288,0,0,0,.243-.01.692.692,0,0,0,.26-.392l.089-.222c.1-.267.124-.317.144-.374s.016-.085-.027-.121l-.054-.029-.019-.027.037,0c.081.03.18.077.184.077s.121.044.181.067l.024.029-.032.008-.048-.012c-.046-.008-.066.012-.094.074s-.047.1-.152.37l-.074.189a.776.776,0,0,1-.359.468.46.46,0,0,1-.376,0,.512.512,0,0,1-.305-.261.676.676,0,0,1,.045-.52Z" transform="translate(-906.719 -2981.001)" fill="#05487c"/><path d="M917.72,3006.82c-.031.143-.021.192.007.212l.082.034.022.026-.043.009c-.1-.024-.178-.05-.207-.058a1.627,1.627,0,0,1-.174-.036l-.034-.028.032-.015.076.01c.045,0,.063-.05.1-.209l.285-1.085.043-.057.055.079c.014.03.183.38.351.708.079.155.229.466.247.5l.007,0,.186-.821c.025-.112.019-.148-.016-.175l-.081-.032-.022-.026.045-.008.2.056c.018,0,.079.015.16.036l.031.024-.031.014-.052-.006c-.047,0-.068.031-.1.136l-.3,1.15-.04.054-.056-.056c-.074-.135-.22-.412-.341-.643s-.242-.509-.266-.549h-.005Z" transform="translate(-907.741 -2981.44)" fill="#05487c"/><path d="M920.836,3006.841c.028-.284.034-.338.037-.4s-.01-.085-.061-.109l-.064-.014-.026-.022.04-.012c.086.009.19.024.239.028s.169.013.268.023a.811.811,0,0,1,.643.282.719.719,0,0,1,.108.493.8.8,0,0,1-.234.506.709.709,0,0,1-.577.165c-.06-.007-.131-.021-.2-.031s-.124-.022-.165-.029l-.094-.008-.115-.006-.03-.024.029-.018h.059c.035-.005.048-.039.059-.094.016-.079.031-.226.048-.4Zm.2.23c-.021.2-.032.343-.034.382l.005.134c.017.037.078.083.208.1a.48.48,0,0,0,.374-.091.644.644,0,0,0,.189-.454.67.67,0,0,0-.107-.483.611.611,0,0,0-.444-.228l-.1,0-.025.035c-.008.065-.024.219-.038.367Z" transform="translate(-909.189 -2981.736)" fill="#05487c"/><path d="M923.843,3007.036c-.007-.286-.008-.339-.011-.4s-.02-.084-.075-.1l-.066,0-.029-.02.037-.018c.087,0,.192,0,.24,0s.421-.007.453-.011l.07-.012.026-.009.01.018c0,.012-.008.036-.009.121l-.008.125-.017.031-.014-.025-.013-.069c-.014-.032-.028-.058-.111-.065l-.261,0-.011.017.01.468.012.02.291-.012.078-.031.026-.025.014.019c0,.012,0,.043-.011.139l-.006.126-.015.042-.016-.015-.007-.068a.092.092,0,0,0-.094-.072l-.262,0-.009.021,0,.152c0,.064,0,.224.006.28.007.128.059.157.228.152l.156-.028c.041-.024.059-.062.069-.142l.019-.028.015.045-.018.207c-.01.049-.025.05-.088.051-.124,0-.224,0-.305,0h-.193l-.1.005-.115.007-.032-.02.026-.02.059-.008c.034-.01.043-.046.046-.1.006-.081,0-.228,0-.4Z" transform="translate(-910.558 -2981.814)" fill="#05487c"/><path d="M925.886,3006.926c-.039-.282-.046-.336-.056-.4s-.031-.08-.085-.093l-.066,0-.03-.017.033-.023c.087-.012.192-.021.24-.027s.167-.028.267-.041a.819.819,0,0,1,.691.124.734.734,0,0,1,.219.457.8.8,0,0,1-.108.545.724.724,0,0,1-.523.3c-.06.007-.133.01-.2.015s-.128.007-.169.012l-.094.013-.113.021-.035-.015.025-.024.056-.015c.033-.014.038-.049.037-.1,0-.082-.024-.231-.047-.4Zm.248.178c.027.2.049.342.055.379l.037.129c.025.034.1.063.225.046a.471.471,0,0,0,.342-.175.642.642,0,0,0,.079-.486.672.672,0,0,0-.217-.445.6.6,0,0,0-.484-.116l-.1.025-.015.042c.007.064.027.217.046.365Z" transform="translate(-911.448 -2981.748)" fill="#05487c"/><path d="M930.076,3005.705c-.037-.115-.067-.2-.089-.278-.016-.051-.024-.075-.051-.066l-.177.166-.023.017-.021-.018.008-.035c.007-.008.268-.383.312-.459l.039-.042.035.038c.005.016.062.229.166.554l.125.39c.065.2.122.384.16.474.027.066.046.094.109.092l.123-.026.022.015-.022.029c-.137.046-.254.074-.3.09s-.19.069-.306.105l-.037-.009.007-.025.139-.062c.055-.032.054-.065.038-.134-.023-.1-.077-.278-.144-.479Z" transform="translate(-913.268 -2981.157)" fill="#05487c"/><path d="M932.453,3004.683a1.368,1.368,0,0,1-.179,1.327l-.029.021-.024-.015.005-.044a1.288,1.288,0,0,0,.036-1.139c-.158-.361-.357-.462-.491-.4s-.15.223-.074.4c.137.311.34.31.4.283a.248.248,0,0,0,.107-.076l.025-.037.021.011v.028a.327.327,0,0,1-.187.193.4.4,0,0,1-.526-.239.481.481,0,0,1,.234-.669c.283-.123.544.055.68.364" transform="translate(-914.063 -2980.838)" fill="#05487c"/><path d="M934.05,3005.075l-.059-.037c-.051-.091-.108-.2-.126-.248l0-.048.03.019a.281.281,0,0,0,.393.117.334.334,0,0,0,.111-.5.415.415,0,0,0-.486-.209l-.071,0,.014-.045a.383.383,0,0,0,.067-.475.259.259,0,0,0-.353-.115.248.248,0,0,0-.112.335l0,.037-.028-.02a1.946,1.946,0,0,1-.121-.186v-.049a.708.708,0,0,1,.252-.236c.315-.179.483-.017.534.073a.491.491,0,0,1-.042.486l0,0a.445.445,0,0,1,.508.213.567.567,0,0,1-.239.794.58.58,0,0,1-.274.092" transform="translate(-914.878 -2980.414)" fill="#05487c"/><path d="M935.91,3003.96l-.041-.01,0-.069a1.686,1.686,0,0,0-.11-1.258c-.2-.287-.379-.25-.456-.2a.247.247,0,0,0-.117.181.4.4,0,0,0,.059.222l0,.048-.038-.025c-.012-.015-.128-.16-.166-.213l-.005-.05a.609.609,0,0,1,.229-.267.436.436,0,0,1,.662.11,1.654,1.654,0,0,1,.071,1.223l.012.009.1-.074c.026-.018.206-.15.256-.2a.235.235,0,0,0,.062-.286l0-.043.036.026a3.041,3.041,0,0,1,.14.291c.021.058,0,.08-.1.149Z" transform="translate(-915.654 -2979.914)" fill="#05487c"/><path d="M938.852,3001.15a.316.316,0,1,1-.447-.011.315.315,0,0,1,.447.011" transform="translate(-917.117 -2979.393)" fill="#05487c"/><path d="M906.5,2996.959l.018.005.263-.065.11-.042.009-.086-.014-.02,0-.032.032.01.1.159c.01.016.064.085.111.16v.035l-.028-.005-.028-.041c-.052-.055-.117-.048-.215-.023l-1.223.282c-.056.013-.081.015-.091,0l.022-.075c.067-.088.553-.74.734-.985.108-.148.1-.2.092-.229l-.029-.056.005-.031c.012-.009.021,0,.055.051s.1.147.172.267l.014.051-.028,0-.044.01-.248.317,0,.022Zm-.283-.239H906.2l-.31.39-.01.015h.02l.481-.124.008-.014Z" transform="translate(-902.44 -2977.093)" fill="#05487c"/><path d="M904.372,2993.1l.017.009.271-.007.117-.018.026-.08-.009-.024.011-.03.028.017c.019.052.041.126.059.177.006.015.044.1.076.177l-.009.035-.025-.011-.019-.045c-.04-.066-.1-.072-.205-.07l-1.257.014c-.056,0-.082,0-.088-.02l.04-.068c.083-.073.7-.6.927-.8.137-.12.143-.174.139-.2l-.017-.06.011-.028c.014-.006.023,0,.044.059s.064.167.109.3l0,.053-.026-.011h-.044l-.311.256-.007.022Zm-.224-.294-.013,0-.386.314-.013.014h.019l.5-.017.01-.011Z" transform="translate(-901.467 -2975.364)" fill="#05487c"/><path d="M903.693,2990.864c.141-.039.18-.069.185-.1l-.007-.086.013-.034.028.034c.025.1.037.18.043.21,0,.015.028.09.049.173l-.01.041-.025-.02-.026-.072c-.024-.04-.076-.033-.235,0l-1.093.247-.069-.013.044-.085c.02-.025.252-.337.466-.637.1-.141.308-.418.328-.449l0-.007-.812.212c-.11.03-.139.053-.149.094l.01.087-.013.03-.027-.036c-.019-.086-.036-.171-.045-.207s-.024-.079-.041-.157l.009-.04.025.022.018.049c.027.04.061.044.166.021l1.162-.259.065.012-.024.077c-.085.127-.264.383-.416.6s-.337.448-.362.488v.006Z" transform="translate(-900.991 -2974.388)" fill="#05487c"/><path d="M903.032,2987.289c-.015.035-.028.042-.081.042-.136.009-.282.008-.323.008l-.064-.021.041-.023.124-.026a.294.294,0,0,0,.232-.311.273.273,0,0,0-.3-.264.493.493,0,0,0-.381.224l-.084.1a.762.762,0,0,1-.565.34.453.453,0,0,1-.49-.458.865.865,0,0,1,.027-.281l.028-.03c.032,0,.1,0,.294-.007.054,0,.075,0,.075.019l-.043.022a.329.329,0,0,0-.159.064.249.249,0,0,0-.108.232.237.237,0,0,0,.266.236c.113-.007.2-.059.343-.24l.048-.06a.781.781,0,0,1,.607-.376.525.525,0,0,1,.438.174.541.541,0,0,1,.118.327.626.626,0,0,1-.047.307" transform="translate(-900.472 -2972.866)" fill="#05487c"/><path d="M902.664,2984.781a.691.691,0,0,1-.684-.75.642.642,0,0,1,.756-.623.7.7,0,0,1,.717.752.683.683,0,0,1-.789.621m.122-1.123c-.416-.032-.689.162-.71.429-.015.184.084.409.549.445.388.029.707-.137.732-.448.008-.116-.035-.385-.571-.426" transform="translate(-900.846 -2971.489)" fill="#05487c"/><path d="M903.582,2981.793a.761.761,0,0,1-.589.088.785.785,0,0,1-.467-.3.683.683,0,0,1-.084-.558,1.508,1.508,0,0,1,.07-.232c.024-.059.049-.11.066-.156l.027-.019c.016,0,.037.011.1.03s.162.038.2.048l.041.032-.043.008a.3.3,0,0,0-.185.026.426.426,0,0,0-.176.292.405.405,0,0,0,.038.329.671.671,0,0,0,.448.253.589.589,0,0,0,.757-.367c.033-.145.036-.226-.035-.309l-.113-.082-.032-.028.037-.012a1.957,1.957,0,0,1,.238.089l.045.053a.849.849,0,0,1-.021.3.765.765,0,0,1-.32.514" transform="translate(-901.043 -2970.238)" fill="#05487c"/><path d="M903.447,2979.6c-.273-.088-.324-.1-.382-.12s-.089-.007-.113.023l-.025.056-.029.019,0-.043c.018-.061.057-.167.072-.211s.041-.145.06-.205l.026-.029.012.033-.009.049c0,.046.016.066.079.09s.107.04.379.127l.317.1c.175.054.318.1.4.118.051.01.081.007.1-.036l.031-.079.027-.021.009.038c-.033.105-.074.211-.087.254s-.04.146-.06.21l-.028.025-.01-.032.01-.058c0-.034-.022-.052-.072-.073-.071-.031-.215-.079-.389-.135Z" transform="translate(-901.256 -2969.558)" fill="#05487c"/><path d="M903.95,2977.891c-.266-.111-.314-.133-.371-.153a.089.089,0,0,0-.122.025l-.031.059-.029.019,0-.042c.034-.08.079-.175.1-.22l.175-.418.016-.069,0-.029.02,0a1.112,1.112,0,0,0,.108.061l.112.057.02.028-.028,0-.068-.017c-.035,0-.065,0-.105.075l-.109.236.012.019.43.18.024,0,.108-.269,0-.084-.011-.032.024-.007.122.065.114.057.031.033-.018.007-.067-.021a.092.092,0,0,0-.1.057l-.109.237.016.017.139.058c.061.026.207.088.259.109.12.045.167.01.233-.147l.038-.154c0-.046-.033-.079-.1-.121l-.019-.028.046,0,.184.1c.041.03.034.045.01.1-.049.116-.089.207-.125.282s-.06.13-.079.175l-.034.089-.04.106-.031.024-.008-.034.016-.054c.005-.036-.024-.057-.074-.085-.069-.037-.208-.095-.368-.164Z" transform="translate(-901.481 -2968.647)" fill="#05487c"/><path d="M904.531,2975.361l-.113.22c-.045.086-.053.126-.027.168l.043.056.011.028-.034,0-.184-.141-.021-.033.054-.052.087-.143.327-.591.047-.1.015-.045.04.009.2.114.02.027h-.043l-.018-.008c-.044-.021-.115-.011-.19.12l-.1.18.67.369c.151.083.283.153.358.186l.117-.009.047-.073.03-.013,0,.038c-.054.1-.112.191-.136.232s-.066.136-.1.193l-.032.018-.005-.031.023-.054-.064-.09c-.065-.046-.2-.118-.349-.2Z" transform="translate(-901.843 -2967.6)" fill="#05487c"/><path d="M906.373,2973.8a.416.416,0,0,0-.182-.083c-.032-.007-.5-.058-.617-.069a.448.448,0,0,0-.172.013l-.06.042-.031.01,0-.037.122-.167c.021-.03.063-.1.1-.158l.029-.009v.044l.009.035.066.02c.065.007.551.082.611.091-.025-.043-.24-.439-.273-.494l-.068-.075-.056,0-.036.012,0-.032.1-.131.1-.148.03-.017v.039l-.023.072a.213.213,0,0,0,.023.121,6.247,6.247,0,0,0,.311.611.5.5,0,0,0,.144.125l.123.087c.025.018.089.062.157.1l.121,0,.052-.066.034-.011,0,.041c-.059.085-.128.172-.155.21s-.082.129-.118.18l-.036.018,0-.033.026-.052-.052-.1c-.062-.051-.125-.093-.151-.113Z" transform="translate(-902.339 -2966.672)" fill="#05487c"/><path d="M908.528,2971.317c.132.127.227.218.292.268l.118.021.061-.054.033-.007-.009.039c-.073.077-.159.155-.19.187l-.142.158-.036.011,0-.031.035-.046-.038-.106c-.053-.06-.154-.158-.285-.284l-.24-.23c-.206-.2-.245-.236-.289-.276l-.122-.021-.052.044-.034.006.016-.04c.058-.062.134-.134.166-.169l.328-.339.041-.057.011-.026.021,0,.051.068.105.113.016.037-.038-.007-.057-.042-.115.038-.2.192.01.03.33.318.02,0,.159-.17.05-.055.023-.073,0-.031.02,0,.078.1.095.1.017.043-.029-.009-.049-.032-.1.01-.189.188,0,.019Z" transform="translate(-903.378 -2965.647)" fill="#05487c"/><path d="M909.831,2969.93a.693.693,0,0,1,.074-1.013.644.644,0,0,1,.972.121.706.706,0,0,1-.053,1.038.684.684,0,0,1-.993-.146m.9-.684c-.264-.325-.591-.391-.8-.22-.143.115-.24.342.055.7.245.3.585.42.827.222.09-.074.256-.291-.082-.707" transform="translate(-904.28 -2964.923)" fill="#05487c"/><path d="M912.106,2968.009c-.15-.245-.177-.29-.211-.34s-.059-.063-.113-.049l-.061.028-.034,0,.023-.033c.075-.046.167-.1.2-.115l.218-.139a.521.521,0,0,1,.311-.1.347.347,0,0,1,.236.16.572.572,0,0,1,.021.475c.237.106.426.191.574.239a.318.318,0,0,0,.217.013l.035-.018.028.007-.016.034-.136.082a.332.332,0,0,1-.175.063.817.817,0,0,1-.337-.118c-.11-.052-.236-.123-.27-.138l-.032,0-.128.074,0,.02.014.023c.092.15.17.273.218.338l.107.052.073-.038.028.006-.018.035c-.083.051-.2.116-.224.13s-.114.077-.17.112h-.038l.012-.03.047-.036-.011-.112c-.035-.073-.113-.2-.2-.348Zm.257.015.031.019.116-.051c.056-.034.073-.051.085-.087a.349.349,0,0,0-.054-.3c-.14-.226-.309-.2-.391-.152l-.081.055v.032Z" transform="translate(-905.194 -2964.257)" fill="#05487c"/><path d="M915.424,2965.7l-.227.1c-.089.037-.121.064-.129.113l0,.071-.008.03-.026-.023-.051-.227,0-.039.075-.006a1.575,1.575,0,0,0,.158-.054l.626-.25.1-.05.037-.025.027.034.081.214,0,.033-.031-.027-.01-.018c-.021-.045-.083-.081-.223-.029l-.2.073.282.711c.064.161.12.3.158.373l.095.066.081-.025.032.01-.022.03c-.1.042-.208.075-.254.094s-.137.061-.2.086l-.038-.007.018-.029.051-.028c.028-.02.025-.058.009-.112-.023-.075-.077-.214-.141-.374Z" transform="translate(-906.67 -2963.394)" fill="#05487c"/><path d="M918.52,2965.23l.005-.016-.008-.037c-.071-.279-.089-.345-.107-.4s-.04-.078-.095-.082l-.064.01-.032-.014.03-.025c.087-.023.2-.048.244-.056s.142-.041.206-.057l.037.008-.024.026-.047.019c-.04.019-.046.047-.032.114s.024.112.095.39l.08.322c.043.167.08.312.107.39.02.05.038.083.089.08l.084-.015.032.015-.029.026c-.1.026-.211.047-.255.058s-.148.044-.21.061l-.04-.009.021-.028.057-.021c.031-.016.031-.054.023-.109-.011-.079-.047-.219-.09-.387l-.036-.139-.012-.009-.607.154-.009.014.036.14c.043.167.079.307.107.385l.086.077.084-.014.03.013-.028.027c-.1.026-.218.049-.263.061s-.141.041-.2.058l-.036-.011.021-.025.055-.021c.032-.017.032-.054.023-.11-.012-.079-.05-.223-.092-.392l-.082-.322c-.071-.278-.085-.329-.1-.387s-.04-.078-.095-.082l-.066.009-.032-.012.03-.026c.086-.021.194-.044.237-.054s.148-.043.214-.059l.037.008-.025.027-.045.021c-.041.018-.047.047-.035.111s.028.127.1.4l.01.039.014.01Z" transform="translate(-907.742 -2963.044)" fill="#05487c"/><path d="M920.8,2964.849c-.035-.285-.041-.337-.052-.4s-.029-.08-.083-.093H920.6l-.031-.016.035-.023c.087-.01.192-.019.239-.024s.418-.05.449-.055l.068-.021.025-.012.014.016a.962.962,0,0,0,0,.123l.005.126-.014.032-.016-.022-.02-.067c-.017-.03-.034-.056-.117-.054l-.26.023-.01.018.059.463.013.018.289-.04.075-.038.024-.029.014.019c0,.01,0,.042,0,.138l.007.127-.011.043-.017-.013-.014-.068a.091.091,0,0,0-.1-.061l-.259.024-.008.021.019.149c.008.064.026.223.035.278.019.129.074.149.242.129l.153-.044c.038-.027.05-.07.052-.147l.015-.03.022.041,0,.21c-.005.049-.02.052-.081.059-.124.016-.224.025-.305.03l-.191.019-.094.015-.113.018-.035-.016.024-.022.058-.015c.031-.012.036-.049.036-.1,0-.08-.023-.227-.043-.4Z" transform="translate(-909.172 -2962.891)" fill="#05487c"/><path d="M926.729,2964.876c.049-.282.057-.336.067-.395s-.005-.087-.054-.113l-.065-.019-.025-.023.041-.012c.085.016.189.039.222.043.056.01.2.031.257.039a.512.512,0,0,1,.3.133.347.347,0,0,1,.071.276.574.574,0,0,1-.3.373c.11.234.2.423.275.557s.128.143.153.153l.039.011.016.023-.034.014-.158-.027a.325.325,0,0,1-.171-.067.861.861,0,0,1-.175-.313c-.048-.112-.095-.249-.11-.28l-.028-.018-.146-.03-.016.013,0,.026c-.03.172-.053.318-.059.4,0,.057,0,.092.045.111l.079.02.017.024-.036.014c-.095-.017-.23-.047-.253-.052s-.137-.017-.2-.028l-.029-.025.03-.014.059,0c.034,0,.051-.037.066-.091.021-.078.045-.223.076-.4Zm.185.181.008.034.122.04c.066.011.089.009.12-.01a.341.341,0,0,0,.154-.259c.046-.262-.095-.357-.192-.374l-.1-.009-.018.023Z" transform="translate(-911.804 -2962.937)" fill="#05487c"/><path d="M929.024,2965.582a.694.694,0,0,1,.887-.5.644.644,0,0,1,.437.876.708.708,0,0,1-.9.531.684.684,0,0,1-.428-.908m1.068.369c.124-.4,0-.708-.26-.787-.175-.055-.418-.01-.557.436-.116.371-.027.72.272.813.111.033.385.052.544-.462" transform="translate(-912.941 -2963.266)" fill="#05487c"/><path d="M932.145,2965.971l.05-.032c.015.009.022.021.02.077l-.058,1.133.865-.753.059-.024.008.071-.375,1.11c-.038.111-.047.165-.009.2l.077.057.016.027h-.05c-.036-.019-.246-.129-.3-.161l-.034-.042.026-.01c.01,0,.023-.018.042-.068l.274-.772,0,0-.687.593c-.073.064-.089.075-.1.066s-.021-.049-.018-.113c0-.094.009-.415.017-.468s.015-.287.024-.429l-.006,0-.391.62-.044.076.023.073.049.035.016.025-.046,0c-.064-.031-.128-.07-.155-.083l-.15-.066-.018-.034.031,0,.048.018c.042.014.09-.047.124-.1Z" transform="translate(-913.96 -2963.665)" fill="#05487c"/><path d="M934.751,2968.155a.693.693,0,0,1,.995-.213.645.645,0,0,1,.156.968.71.71,0,0,1-1.014.241.686.686,0,0,1-.137-1m.908.671c.238-.344.209-.677-.011-.83-.153-.106-.4-.133-.663.251-.221.319-.241.68.018.859.1.067.35.163.656-.28" transform="translate(-915.456 -2964.504)" fill="#05487c"/><path d="M937.78,2969.546l-.188-.16c-.075-.063-.112-.08-.16-.065l-.063.029-.03.007.009-.035.18-.146.037-.014.039.065.118.117.5.452.091.069.039.024-.016.037-.157.169-.031.012.01-.041.013-.015c.029-.039.035-.11-.075-.212l-.153-.144-.511.569c-.115.13-.215.241-.264.306l-.017.118.06.062.006.031-.037-.006c-.082-.072-.161-.153-.194-.183s-.118-.1-.168-.14l-.01-.039.034,0,.047.036.1-.043c.06-.053.16-.164.275-.293Z" transform="translate(-916.446 -2965.108)" fill="#05487c"/><path d="M938.846,2971.408c.212-.195.25-.231.292-.273l.036-.11-.034-.05,0-.034.038.019.149.166.148.154.012.035-.034,0-.039-.032c-.038-.028-.066-.019-.118.023s-.086.075-.3.267l-.245.229c-.135.123-.246.226-.3.286l-.021.109.053.066,0,.033-.037-.01c-.073-.081-.147-.168-.176-.2l-.152-.155-.007-.037.031.006.045.039.1-.025c.063-.049.172-.152.308-.273Z" transform="translate(-917.032 -2965.906)" fill="#05487c"/><path d="M939.779,2972.737a.693.693,0,0,1,1.01.119.643.643,0,0,1-.162.967.708.708,0,0,1-1.038-.1.684.684,0,0,1,.189-.986m.645.928c.337-.249.416-.574.255-.789-.11-.149-.332-.254-.707.023-.312.233-.447.566-.26.819.069.093.279.267.712-.053" transform="translate(-917.629 -2966.636)" fill="#05487c"/><path d="M941.032,2975.615c-.127.073-.157.113-.154.148l.029.081,0,.034-.035-.023c-.052-.094-.082-.166-.1-.192s-.051-.081-.091-.154v-.045l.03.015.043.062c.032.033.08.012.226-.062l.994-.515.071,0-.022.091c-.012.029-.158.392-.29.736-.063.162-.193.483-.2.518l0,.006.734-.412c.1-.057.122-.085.119-.128l-.032-.081.006-.033.036.029c.041.077.079.157.1.188.009.016.044.07.081.142v.041l-.031-.015-.03-.043c-.035-.032-.071-.029-.166.019l-1.06.545-.066.008,0-.079c.051-.146.159-.439.251-.685s.214-.519.229-.562l0-.006Z" transform="translate(-918.181 -2967.705)" fill="#05487c"/><path d="M943.181,2979.026a.694.694,0,0,1,.909.455.646.646,0,0,1-.482.854.705.705,0,0,1-.939-.446.685.685,0,0,1,.512-.864m.29,1.092c.4-.12.585-.4.509-.655-.053-.178-.225-.353-.673-.219-.372.113-.611.382-.522.681.034.113.171.348.686.193" transform="translate(-919.057 -2969.511)" fill="#05487c"/><path d="M943.765,2982.268c-.179.031-.311.055-.388.077-.054.016-.088.033-.088.082l.007.082-.015.032-.026-.033c-.018-.105-.032-.221-.04-.263s-.031-.146-.042-.207l.015-.039.024.02.016.059c.014.032.052.033.108.031.08-.007.218-.03.4-.063l.328-.056c.283-.048.335-.061.394-.071s.083-.033.089-.086l0-.068.014-.029.024.035c.014.083.029.188.036.234.011.063.072.426.081.465l.02.065.016.024-.016.013h-.084l-.153.019-.041-.01.027-.025.069-.022a.111.111,0,0,0,.039-.114l-.042-.272-.028-.01-.452.078-.016.015.043.227.015.076.045.062.024.02-.018.012c-.009,0-.062,0-.122.008l-.136.019-.046-.012.025-.019.054-.022a.084.084,0,0,0,.054-.088l-.037-.264-.017-.009Z" transform="translate(-919.297 -2970.741)" fill="#05487c"/><path d="M943.57,2985.361c.016-.032.03-.039.083-.04.135,0,.282.006.322.008l.063.023-.041.021-.125.021a.294.294,0,0,0-.246.3.272.272,0,0,0,.283.276.486.486,0,0,0,.393-.207l.086-.1a.761.761,0,0,1,.579-.315.452.452,0,0,1,.469.48.828.828,0,0,1-.039.277l-.029.03c-.031,0-.1-.008-.294-.006-.055,0-.074,0-.074-.022l.045-.021a.334.334,0,0,0,.161-.056.251.251,0,0,0,.118-.229.236.236,0,0,0-.256-.247c-.113,0-.2.05-.351.225l-.051.059a.778.778,0,0,1-.623.347.516.516,0,0,1-.429-.192.549.549,0,0,1-.1-.331.644.644,0,0,1,.062-.306" transform="translate(-919.447 -2972.346)" fill="#05487c"/><path d="M943.636,2987.636a.82.82,0,0,1,1.07.1.682.682,0,0,1,.143.545,1.581,1.581,0,0,1-.046.239c-.018.059-.037.112-.05.161l-.023.022c-.016,0-.037-.009-.1-.019s-.165-.021-.2-.027l-.044-.028.043-.014a.3.3,0,0,0,.181-.044.423.423,0,0,0,.144-.308.4.4,0,0,0-.071-.321.683.683,0,0,0-.473-.207.592.592,0,0,0-.714.442c-.016.146-.011.23.068.3l.12.07.036.025-.036.014a2.1,2.1,0,0,1-.246-.062l-.05-.05a.821.821,0,0,1-.01-.3.762.762,0,0,1,.265-.542" transform="translate(-919.382 -2973.315)" fill="#05487c"/><path d="M944,2990.14c.282.059.333.072.391.082s.089,0,.11-.036l.021-.058.028-.021.008.042-.051.216c-.009.041-.027.147-.04.21l-.022.03-.016-.032,0-.049c0-.045-.024-.064-.087-.083s-.11-.025-.39-.086l-.327-.069c-.179-.037-.327-.068-.406-.077-.052-.006-.082,0-.1.046l-.025.08-.025.022-.013-.035c.023-.108.052-.217.061-.262s.025-.149.038-.213l.027-.026.014.03-.005.058c0,.035.026.051.08.068.073.023.222.054.4.092Z" transform="translate(-919.246 -2974.363)" fill="#05487c"/><path d="M943.564,2991.607c.275.084.326.1.384.117s.086.005.119-.039l.026-.061.027-.021.006.041c-.026.083-.06.184-.073.229l-.133.433-.01.07v.027l-.021.006a.807.807,0,0,0-.112-.048l-.116-.047-.024-.026.026,0,.069.008c.035,0,.065-.007.1-.083l.086-.246-.015-.017-.446-.136-.023.005-.081.279.006.083.016.032-.024.008c-.009,0-.039-.018-.127-.056l-.12-.042-.036-.029.021-.009.066.014a.089.089,0,0,0,.1-.067l.084-.246-.016-.017-.144-.044c-.062-.019-.214-.066-.268-.082-.125-.034-.167.007-.216.169l-.021.157c.008.046.042.075.113.11l.02.025-.046,0-.193-.083c-.043-.025-.039-.04-.021-.1.036-.117.068-.214.1-.292s.046-.135.061-.181l.025-.091.029-.112.029-.023.011.029-.011.059c0,.035.03.054.081.077.074.031.218.074.383.124Z" transform="translate(-919.008 -2974.99)" fill="#05487c"/><path d="M942.108,2993.38c-.135-.055-.184-.055-.209-.031l-.049.075-.03.017,0-.043c.043-.1.081-.165.094-.193s.033-.089.067-.167l.035-.026.006.032-.023.071c-.005.047.039.073.189.142l1.018.469.048.053-.086.04c-.031.01-.407.114-.759.221-.166.05-.5.144-.534.155l0,.007.775.327c.106.046.143.046.175.017l.046-.075.029-.017v.044c-.035.081-.075.16-.091.192-.007.017-.029.076-.062.151l-.031.027-.006-.034.015-.047c0-.05-.02-.076-.118-.121l-1.082-.5-.044-.048.065-.047c.146-.049.444-.144.7-.222s.541-.149.584-.166l0,0Z" transform="translate(-918.535 -2975.792)" fill="#05487c"/><path d="M940.8,2996.1a.758.758,0,0,1,.584.116.77.77,0,0,1,.338.439.679.679,0,0,1-.108.552,1.164,1.164,0,0,1-.144.2l-.114.127-.032.009c-.013-.008-.03-.024-.084-.063s-.139-.09-.172-.111l-.027-.045.042.008a.3.3,0,0,0,.183.037.426.426,0,0,0,.263-.215.407.407,0,0,0,.076-.323.681.681,0,0,0-.338-.388.591.591,0,0,0-.835.092c-.078.125-.109.2-.07.3l.078.115.02.039-.037,0a1.971,1.971,0,0,1-.2-.164l-.023-.066a.857.857,0,0,1,.12-.275.768.768,0,0,1,.475-.38" transform="translate(-917.968 -2977.167)" fill="#05487c"/><path d="M940.092,2998.373c.225.177.268.21.315.246s.08.036.125.007l.047-.049.033-.009-.01.041c-.054.067-.123.148-.151.185l-.281.358-.035.061-.009.027-.02,0c-.011-.006-.023-.03-.089-.084l-.092-.086-.013-.032.028,0,.06.033c.036.009.063.017.122-.042l.169-.2-.007-.02-.368-.288-.022,0-.177.23-.025.08,0,.037-.024,0c-.008-.006-.031-.029-.1-.095l-.095-.083-.024-.04.023,0,.058.038.114-.029.169-.2-.01-.02-.119-.093c-.052-.039-.176-.139-.22-.172-.1-.078-.158-.055-.264.079l-.078.138c-.008.046.012.087.066.142l.012.033-.045-.015-.15-.148.016-.1c.076-.1.141-.177.193-.237s.093-.111.123-.15l.057-.074.068-.094.035-.013v.034l-.03.048.047.1c.06.057.177.149.313.254Z" transform="translate(-917.432 -2977.904)" fill="#05487c"/><path d="M907.545,2998.519a.982.982,0,0,1,.558.224l.006.043-.038-.008a.643.643,0,0,0-.259-.112.772.772,0,0,0-.452.077,2.257,2.257,0,0,0-.485.341c-.152.121-.659.542-.717.595s-.082.092-.053.155l.045.069,0,.04-.045-.02c-.069-.087-.146-.193-.179-.236s-.119-.134-.17-.2l-.011-.048.041.016.044.041c.043.037.086.022.155-.026s.118-.09.405-.321l.176-.142c.051-.042.158-.129.232-.187a1.042,1.042,0,0,1,.741-.3" transform="translate(-902.535 -2978.257)" fill="#05487c"/><path d="M924.26,2964.075c.016-.373.019-.441.018-.521s-.016-.123-.083-.143l-.082-.01-.033-.024.047-.02c.111,0,.241.018.3.022.085,0,.207,0,.3,0a.424.424,0,0,1,.473.452.536.536,0,0,1-.538.572l-.045,0-.024-.025.059-.024h.033a.4.4,0,0,0,.264-.39.516.516,0,0,0-.108-.373.283.283,0,0,0-.2-.105l-.082.006-.019.046-.042.981c-.009.228-.018.42-.012.526,0,.07.013.123.076.136l.1.014.034.022-.041.023c-.137-.006-.269-.018-.324-.023s-.179,0-.262,0l-.041-.026.034-.019.076-.006c.041-.008.055-.062.066-.133.014-.1.023-.3.032-.521Z" transform="translate(-910.724 -2962.509)" fill="#05487c"/><path d="M924.985,2965.16l-.164-.005,0,.05s.124.008.2.007Z" transform="translate(-911.076 -2963.315)" fill="#05487c"/><path d="M904.92,2995.723c-.256.131-.3.154-.355.184s-.067.055-.06.111l.025.062-.005.032-.032-.024c-.04-.079-.085-.174-.106-.217-.031-.06-.094-.176-.129-.242a.387.387,0,0,1-.046-.325.362.362,0,0,1,.164-.177.427.427,0,0,1,.6.163l.02.044-.009.029-.045-.038a.285.285,0,0,0-.376-.06.4.4,0,0,0-.2.217.233.233,0,0,0,.013.181l.041.058.039,0,.665-.341c.154-.079.285-.148.356-.192l.058-.1-.033-.077.006-.035.031.019c.051.1.1.207.118.246s.073.123.1.182l0,.039-.03-.015-.031-.048c-.025-.029-.061-.021-.112,0-.076.031-.207.1-.362.177Z" transform="translate(-901.838 -2976.669)" fill="#05487c"/><path d="M905.669,2995.7l-.079-.156-.017.063.061.121Z" transform="translate(-902.456 -2976.927)" fill="#05487c"/></g></svg>