<svg xmlns="http://www.w3.org/2000/svg" width="306px" height="34px" viewBox="0 0 154.27 16.95">
	<path fill="#e60012" d="M11,10,9.27,11.26,7.58,10,9.27,8.73Zm2.53-4.42L10.11,3l-.84.63L8.42,3,5.05,5.57l.85.63L4.21,7.47l-.84-.63L0,9.36.84,10,0,10.63l3.37,2.53.84-.64L5.9,13.79l-.85.63L8.42,17l.85-.63.84.63,3.37-2.53-.84-.63,1.68-1.27.85.64,3.37-2.53L17.69,10l.85-.63L15.17,6.84l-.85.63L12.64,6.2Z"/>
	<path fill="#231815" d="M29.06,6a8,8,0,0,0-2.61-.41c-1,0-2.26.41-2.26,1.33,0,2.1,5.56,1.69,5.56,5.49,0,2-1.81,3.51-4.49,3.27a13,13,0,0,1-2.48-.58L23,13.71a7.38,7.38,0,0,0,2.44.62c1.26,0,2.83-.5,2.83-1.78,0-3.17-5.52-2.25-5.52-5.41,0-1.95,1.56-2.75,3.75-2.75a11.49,11.49,0,0,1,2.77.39Z"/>
	<path fill="#231815" d="M37.65,11.38c0,3.08-1.35,4.34-3.68,4.34s-3.67-1.26-3.67-4.34V4.58h1.41v6.6c0,2.1.51,3.16,2.26,3.16s2.27-1.06,2.27-3.16V4.58h1.41Z"/>
	<polygon fill="#231815" points="38.82 4.58 41.11 4.58 44.07 13.44 47.03 4.58 49.32 4.58 49.32 15.53 47.91 15.53 47.91 6.05 47.89 6.05 44.74 15.53 43.4 15.53 40.26 6.05 40.23 6.05 40.23 15.53 38.82 15.53 38.82 4.58"/>
	<polygon fill="#231815" points="69.71 4.58 72 4.58 74.96 13.44 77.92 4.58 80.21 4.58 80.21 15.53 78.8 15.53 78.8 6.05 78.78 6.05 75.63 15.53 74.29 15.53 71.14 6.05 71.12 6.05 71.12 15.53 69.71 15.53 69.71 4.58"/>
	<polygon fill="#231815" points="116.93 4.58 119.22 4.58 122.18 13.44 125.14 4.58 127.44 4.58 127.44 15.53 126.02 15.53 126.02 6.05 126 6.05 122.85 15.53 121.51 15.53 118.37 6.05 118.34 6.05 118.34 15.53 116.93 15.53 116.93 4.58"/>
	<rect fill="#231815" x="128.39" y="4.58" width="1.41" height="10.95"/>
	<polygon fill="#231815" points="55.64 5.96 52.66 5.96 52.66 4.58 60.04 4.58 60.04 5.96 57.05 5.96 57.05 15.53 55.64 15.53 55.64 5.96"/>
	<path fill="#231815" d="M61.21,10.15c0-2.19,1-4.23,3.11-4.21s3.11,2,3.11,4.21-.93,4.21-3.11,4.21-3.11-2.07-3.11-4.21m-1.43,0c0,3.27,1.66,5.57,4.54,5.57s4.54-2.3,4.54-5.57-1.67-5.57-4.54-5.57S59.78,7,59.78,10.15"/>
	<path fill="#231815" d="M82.39,10.15c0-2.19,1-4.23,3.11-4.21s3.11,2,3.11,4.21-.93,4.21-3.11,4.21-3.11-2.07-3.11-4.21m-1.43,0c0,3.27,1.66,5.57,4.54,5.57S90,13.42,90,10.15,88.37,4.58,85.5,4.58,81,7,81,10.15"/>
	<path fill="#231815" d="M100.59,6.38a3.67,3.67,0,0,0-2-.61c-2.26,0-3.75,1.82-3.75,4.28s1.65,4.29,3.67,4.29a4.37,4.37,0,0,0,2.13-.54l.09,1.52a5.5,5.5,0,0,1-2.23.4c-2.69,0-5.15-2.23-5.15-5.71s2.19-5.62,5.16-5.62a5,5,0,0,1,2.2.47Z"/>
	<path fill="#231815" d="M137.93,6.38a3.65,3.65,0,0,0-2-.61c-2.25,0-3.75,1.82-3.75,4.28s1.65,4.29,3.68,4.29A4.33,4.33,0,0,0,138,13.8l.09,1.52a5.42,5.42,0,0,1-2.22.4c-2.7,0-5.15-2.23-5.15-5.71s2.18-5.62,5.16-5.62a5,5,0,0,1,2.2.47Z"/>
	<path fill="#231815" d="M145.34,11.48h-3.92l2-5.43Zm-6.86,4H140L141,12.61h4.67l1.08,2.92h1.54L144.17,4.58h-1.48Z"/>
	<polygon fill="#231815" points="148.74 4.58 150.15 4.58 150.15 14.15 154.27 14.15 154.27 15.53 148.74 15.53 148.74 4.58"/>
	<polygon fill="#231815" points="101.52 4.58 102.93 4.58 102.93 9.12 107.65 9.12 107.65 4.58 109.06 4.58 109.06 15.53 107.65 15.53 107.65 10.34 102.93 10.34 102.93 15.53 101.52 15.53 101.52 4.58"/>
	<polygon fill="#231815" points="110.27 4.58 115.79 4.58 115.79 5.88 111.68 5.88 111.68 9.12 115.42 9.12 115.42 10.34 111.68 10.34 111.68 14.23 115.79 14.23 115.79 15.53 110.27 15.53 110.27 4.58"/>
	<rect fill="#231815" x="50.34" y="4.58" width="1.41" height="10.95"/>
	<rect fill="#e60012" x="49.84" y="0.5" width="2.4" height="2.4" transform="translate(13.75 36.59) rotate(-45)"/>
</svg>