<?xml version="1.0" encoding="UTF-8"?>
<svg width="341px" height="75px" viewBox="0 0 341 75" version="1.1" xmlns="http://www.w3.org/2000/svg" xmlns:xlink="http://www.w3.org/1999/xlink">
    <!-- Generator: Sketch 51.3 (57544) - http://www.bohemiancoding.com/sketch -->
    <title>Group</title>
    <desc>Created with Sketch.</desc>
    <defs></defs>
    <g id="Page-1" stroke="none" stroke-width="1" fill="none" fill-rule="evenodd">
        <g id="Artboard-1-Copy" transform="translate(-20.000000, -20.000000)" fill="#C4302C">
            <g id="Group" transform="translate(20.000000, 20.000000)">
                <path d="M15.7777208,43.6733951 L29.2791453,43.6733951 L16.347094,74.9960938 L2.84367521,74.9960938 L15.7777208,43.6733951 Z M46.252849,0 L59.7831909,0 L59.7911681,0.0681080648 L91,75 L77.4905983,75 L65.2555556,45.6193828 L50.4578348,45.6193828 L62.6270655,75 L49.1266382,75 L33.8811966,38.2016132 L29.2793447,38.2016132 L29.2793447,38.2086244 L15.7779202,38.2086244 L0,0 L13.5094017,0 L28.2143875,35.6225211 L32.8082621,35.6225211 L32.8082621,35.6165115 L46.3106838,35.6165115 L46.3176638,35.6225211 L46.3745014,35.6225211 L46.3745014,35.756734 L49.6511396,43.673295 L64.4418803,43.673295 L59.2796296,31.2726192 L46.8501425,31.3277066 L33.3417379,31.3277066 L46.2668091,0.0300476756 L46.252849,0 Z" id="Combined-Shape"></path>
                <g id="Group-24" transform="translate(103.000000, 0.000000)">
                    <path d="M6.2061,70.6738 L4.6601,69.1288 C10.2571,66.9698 13.6221,63.2368 14.7701,57.9358 L7.9171,57.9358 C6.6021,59.9898 5.2301,61.6398 3.8081,62.8858 L2.0891,61.8278 C5.0581,59.2858 6.9711,56.3108 7.8301,52.9028 L9.8021,53.5518 C10.1421,53.7178 10.0831,53.8768 9.6281,54.0428 C9.3971,54.7428 9.0871,55.4438 8.6891,56.1518 L14.8501,56.1518 L15.6221,55.7398 L17.1681,57.2018 C17.5651,57.5818 17.4781,57.8558 16.9151,58.0148 C15.8251,63.9068 12.2571,68.1328 6.2061,70.6738 Z M39.433,67.753 L37.461,67.753 L37.461,66.857 L27.957,66.857 L27.957,68.161 L25.985,68.161 L25.985,55.502 L39.433,55.502 L39.433,67.753 Z M27.957,65.077 L37.461,65.077 L37.461,57.289 L27.957,57.289 L27.957,65.077 Z M63.1553,67.916 L61.4433,69.295 C59.0463,66.912 56.7353,64.911 54.5043,63.287 C52.2793,65.562 49.7373,67.591 46.8843,69.374 L45.2533,67.995 C51.3043,64.266 55.1893,60.528 56.9013,56.802 L47.5713,57.365 L47.3103,55.422 L57.2483,55.011 L58.2733,54.769 L59.6453,56.064 C60.0423,56.447 59.9263,56.693 59.3053,56.802 C58.2163,58.585 57.0743,60.231 55.8763,61.748 C58.3313,63.532 60.7583,65.59 63.1553,67.916 Z M77.1143,60.8525 C77.2293,64.9655 75.3743,68.1575 71.5473,70.4285 L70.0943,68.8825 C73.4603,67.1575 75.1433,64.7235 75.1433,61.5895 L75.1433,58.0935 L76.9483,58.0935 C77.4613,58.1525 77.5113,58.3395 77.1143,58.6645 L77.1143,60.7735 C79.1733,59.3145 80.7393,57.8805 81.8303,56.4725 L67.8633,56.9605 L67.6973,55.0935 L83.2823,54.6935 L83.8813,54.5265 L85.1673,55.9895 C85.3403,56.2025 85.1953,56.2855 84.7403,56.2315 C83.0293,58.3395 80.9703,60.3145 78.5733,62.1525 L77.1143,60.8525 Z M104.0078,52.4971 L105.0328,51.6011 C105.8928,52.3601 106.8028,53.2851 107.7778,54.3601 L106.6648,55.2561 C105.6328,54.1191 104.7508,53.2011 104.0078,52.4971 Z M104.1808,56.3931 C103.2638,55.3141 102.3828,54.3601 101.5238,53.5521 L102.7218,52.6641 C103.5248,53.3641 104.4048,54.3101 105.3798,55.5021 L104.1808,56.3931 Z M105.2058,59.0691 C105.4948,59.5601 105.2358,59.6401 104.4338,59.3141 C101.2418,60.1271 97.8688,60.7481 94.3308,61.1821 L94.3308,66.4531 C94.3308,67.1571 94.6988,67.5081 95.4428,67.5081 L105.2928,67.5081 L105.1198,69.2951 L95.1038,69.2951 C93.2768,69.2951 92.3598,68.5911 92.3598,67.1831 L92.3598,54.4431 L94.0708,54.4431 C94.6988,54.5561 94.7858,54.7721 94.3308,55.0981 L94.3308,59.2351 C98.2158,58.8021 101.6108,58.1231 104.5208,57.2021 L105.2058,59.0691 Z M125.5928,61.9902 C125.5928,66.0452 123.5928,68.9692 119.5918,70.7542 L117.8798,69.3742 C121.6508,67.7502 123.5638,65.2652 123.6218,61.9142 L123.6218,53.7972 L125.4198,53.7972 C125.9898,53.9052 126.0478,54.1222 125.5928,54.4432 L125.5928,61.9902 Z M116.7688,63.7772 L114.7968,63.7772 L114.7968,54.6062 L116.6818,54.6062 C117.2518,54.6642 117.2808,54.8812 116.7688,55.2562 L116.7688,63.7772 Z M136.469,56.068 L136.469,54.281 L147.858,54.281 L147.858,56.068 L136.469,56.068 Z M141.95,61.016 L133.386,61.016 L133.386,59.235 L150.94,59.235 L150.94,61.016 L143.922,61.016 L143.922,62.073 C143.922,65.479 142.636,68.291 140.065,70.508 L138.354,69.295 C140.751,67.512 141.95,65.1 141.95,62.073 L141.95,61.016 Z M165.5,70.7539 L163.788,70.7539 L163.788,63.2069 C162.532,64.1279 160.646,65.1829 158.134,66.3699 L156.935,64.9909 C162.358,62.5069 166.07,59.7739 168.07,56.8019 L169.529,57.8559 C169.869,58.1229 169.753,58.3179 169.183,58.4229 C168.215,59.5609 166.987,60.7229 165.5,61.9069 L165.5,70.7539 Z" id="Combined-Shape"></path>
                    <path d="M133.8623,39.2529 L135.9053,39.2529 C137.8983,39.2529 139.0473,37.9389 139.0473,36.1769 L139.0473,20.8199 C139.0473,17.6899 136.5853,17.5299 133.4653,17.5299 L133.4653,15.2269 L143.6473,14.3969 L143.6473,36.1769 C143.6473,37.9389 144.3623,39.2529 146.3553,39.2529 L148.7103,39.2529 L148.7103,41.5569 L133.8623,41.5569 L133.8623,39.2529 Z M151.6201,39.2529 L153.6711,39.2529 C155.6641,39.2529 156.3791,37.8809 156.3791,36.1259 L156.3791,6.0839 C156.3791,2.8459 154.1621,2.8779 151.0421,2.8779 L151.0421,0.5739 L161.2901,0.1189 L161.2901,37.1079 C161.2901,37.8809 162.0051,39.2529 163.9971,39.2529 L166.3511,39.2529 L166.3511,41.5569 L151.6201,41.5569 L151.6201,39.2529 Z M137.1406,3.4668 C137.1406,1.6168 138.6426,0.1188 140.4916,0.1188 C142.3466,0.1188 143.8496,1.6168 143.8496,3.4668 C143.8496,5.3158 142.3466,6.8138 140.4916,6.8138 C138.6426,6.8138 137.1406,5.3158 137.1406,3.4668 Z M169.6016,39.2529 L171.6456,39.2529 C173.6386,39.2529 174.7866,37.9389 174.7866,36.1769 L174.7866,20.8199 C174.7866,17.6899 172.3246,17.5299 169.2046,17.5299 L169.2046,15.2269 L179.3866,14.3969 L179.3866,36.1769 C179.3866,37.9389 180.1016,39.2529 182.0946,39.2529 L184.4496,39.2529 L184.4496,41.5569 L169.6016,41.5569 L169.6016,39.2529 Z M172.8877,3.4668 C172.8877,1.6168 174.3817,0.1188 176.2317,0.1188 C178.0867,0.1188 179.5887,1.6168 179.5887,3.4668 C179.5887,5.3158 178.0867,6.8138 176.2317,6.8138 C174.3817,6.8138 172.8877,5.3158 172.8877,3.4668 Z M117.3965,42.6543 C113.7925,42.6543 110.9335,41.6943 109.1925,37.6383 L106.7945,42.3373 L105.0265,41.6463 C105.0265,41.6463 106.3115,40.2893 106.3115,34.0323 L106.3115,6.6473 C106.3115,3.6293 104.2025,2.6723 100.9815,2.6723 L100.9815,0.4233 L110.0955,0.1193 L110.0955,19.5023 C111.0775,17.4513 113.1505,14.4183 117.7215,14.4183 C124.4665,14.4183 128.9155,20.5353 128.9155,28.4353 C128.9155,36.5593 124.0045,42.6543 117.3965,42.6543 Z M116.9055,16.9383 C112.7675,16.9383 110.5145,21.5743 110.5145,28.2693 C110.5145,35.1303 112.2975,40.1273 116.6455,40.1273 C121.3545,40.1273 124.0695,36.1193 124.0695,28.3273 C124.0695,21.3573 122.1765,16.9383 116.9055,16.9383 Z M192.0459,35.1514 L192.0459,18.0284 L186.8319,18.0284 L186.8319,15.5014 C191.2309,15.5014 193.4829,10.0634 193.4829,3.4264 L195.8879,3.4264 L195.8879,15.5014 L204.3739,15.5014 L204.3739,18.0284 L195.8879,18.0284 L195.8879,33.2884 C195.8879,36.1364 196.6529,39.2634 199.7739,39.2634 C202.4309,39.2634 204.1209,35.3104 204.1209,31.5294 L206.1649,31.5294 C206.1649,38.2784 203.5579,43.0514 198.6969,43.0514 C193.9449,43.0514 192.0459,39.2634 192.0459,35.1514 Z M213.0176,21.5928 C211.6456,18.9098 210.7726,17.8628 208.2156,17.8628 L208.2156,15.5558 L221.0916,15.5558 L221.0916,17.8628 C218.6436,17.8628 216.8676,17.8918 216.5996,19.0688 C216.4776,19.6388 216.5716,20.0938 217.6246,22.1958 L224.4936,35.2088 L229.5836,23.5178 C230.5386,21.2718 230.6606,20.2748 230.6606,19.6168 C230.6606,18.2448 229.8366,17.8628 228.1476,17.8628 L226.5146,17.8628 L226.5146,15.5558 L237.2036,15.5558 L237.2036,17.8628 C234.5386,17.8628 233.6426,19.6898 232.3936,22.4198 L225.0926,38.7398 C221.2726,47.3918 218.2826,52.6348 213.8336,52.6348 C211.1766,52.6348 208.3606,50.6558 208.3606,47.6378 C208.3606,45.4428 209.5376,43.7408 211.5306,43.7408 C213.4226,43.7408 214.4486,45.1098 214.4486,46.5978 C214.4486,48.1358 213.7336,48.0778 213.7336,49.0678 C213.7336,49.7248 214.1376,50.0568 215.0616,50.0568 C216.9036,50.0568 220.2976,44.3948 222.1386,40.1188 L213.0176,21.5928 Z M86.7627,27.8789 L71.1137,27.8789 L69.4737,32.3779 C69.1707,33.1439 68.5567,34.7969 68.5567,35.6709 C68.5567,38.2529 71.0627,39.2529 73.9737,39.2529 L73.9737,41.5569 L60.1647,41.5569 L60.1647,39.3109 C63.2347,38.9789 65.0757,37.1509 66.0437,34.4649 L78.3777,0.3209 L80.9277,0.3209 L94.4317,36.3279 C95.3567,38.7979 97.2987,39.2529 99.5517,39.2529 L99.5517,41.5569 L84.8697,41.5569 L84.8697,39.2529 L86.4587,39.2529 C89.7307,39.2529 90.0917,38.3579 90.0917,37.2599 C90.0917,36.8259 89.6297,35.4469 89.3197,34.6819 L86.7627,27.8789 Z M72.0307,25.2429 L85.7877,25.2429 L78.7827,6.5819 L72.0307,25.2429 Z M11.0078,36.4512 C11.0078,38.1482 12.4448,39.1442 15.6658,39.1442 L15.6658,41.5502 L0.9338,41.5502 L0.9338,39.1442 C5.0288,39.1442 7.7508,35.8592 9.6278,33.1002 L18.2728,20.0402 L9.8308,7.6372 C7.4328,4.0692 5.7428,2.7522 2.1608,2.7522 L2.1608,0.1192 L16.9448,0.1192 L16.9448,2.7522 L15.0008,2.7522 C13.6218,2.7522 13.0588,3.0802 13.0588,3.8492 C13.0588,4.3942 14.0838,6.2642 14.4388,6.7052 L21.2408,16.6922 L27.0758,7.8532 C27.6318,7.0302 28.4048,5.6582 28.4048,4.6692 C28.4048,3.6822 27.5308,2.9182 24.2088,2.9182 L24.2088,0.1192 L38.5798,0.1192 L38.5798,2.9182 C34.2828,2.9182 31.6258,5.5502 29.6248,8.6232 L22.7788,18.8882 L32.5928,33.3242 C35.5618,37.6572 38.8328,39.2572 41.0348,39.2572 L41.0348,41.5502 L25.0748,41.5502 L25.0748,39.2572 L27.4298,39.2572 C29.7338,39.2572 29.7838,37.8772 29.7838,37.7082 C29.7838,36.8912 28.9678,35.6792 28.5058,35.0212 L19.8118,22.2312 L12.7478,32.7672 C11.4188,34.8052 11.0078,35.9022 11.0078,36.4512 Z M44.314,21.64 L44.314,17.697 L55.255,17.697 L55.255,21.64 L44.314,21.64 Z" id="Combined-Shape"></path>
                </g>
            </g>
        </g>
    </g>
</svg>